<?xml version="1.0" standalone="no"?>
<!DOCTYPE svg PUBLIC "-//W3C//DTD SVG 20010904//EN"
 "http://www.w3.org/TR/2001/REC-SVG-20010904/DTD/svg10.dtd">
<svg version="1.0" xmlns="http://www.w3.org/2000/svg"
 width="2264.000000pt" height="2264.000000pt" viewBox="0 0 2264.000000 2264.000000"
 preserveAspectRatio="xMidYMid meet">
<metadata>
Created by potrace 1.11, written by Peter Selinger 2001-2013
</metadata>
<g transform="translate(0.000000,2264.000000) scale(0.100000,-0.100000)"
fill="#000000" stroke="none">
<path d="M7767 15283 c-9 -10 -17 -13 -17 -7 0 12 -61 11 -81 -1 -6 -5 -10 -4
-6 1 3 5 -5 9 -17 9 -20 0 -21 -2 -9 -25 8 -17 9 -26 2 -31 -6 -4 -7 -9 -3
-12 11 -6 11 -78 1 -94 -4 -6 -3 -14 1 -17 9 -5 7 -67 -3 -93 -2 -6 1 -14 8
-17 9 -3 8 -5 -1 -5 -8 -1 -10 -6 -6 -13 11 -17 12 -58 3 -90 -5 -18 -4 -28 3
-28 7 0 7 -4 -1 -13 -6 -8 -8 -17 -4 -20 8 -8 11 -87 3 -87 -3 0 -5 -11 -5
-25 0 -14 3 -25 6 -25 5 0 4 -69 -1 -95 -1 -5 -1 -12 0 -15 6 -14 5 -80 -2
-80 -3 0 -3 -13 2 -30 5 -17 5 -43 0 -60 -6 -20 -5 -30 2 -30 7 0 7 -4 -1 -13
-6 -8 -8 -17 -4 -20 8 -8 11 -87 3 -87 -3 0 -5 -11 -5 -25 0 -14 3 -25 6 -25
5 0 4 -69 -1 -95 -1 -5 -1 -12 0 -15 6 -14 5 -80 -2 -80 -3 0 -3 -13 2 -30 5
-17 5 -43 0 -60 -6 -20 -5 -30 2 -30 7 0 7 -4 -1 -13 -6 -8 -8 -17 -4 -20 9
-9 10 -87 1 -87 -3 0 -3 -13 2 -30 5 -17 5 -43 0 -60 -6 -20 -5 -30 2 -30 7 0
6 -5 -1 -14 -8 -9 -8 -16 -2 -20 5 -4 8 -18 5 -31 -4 -25 2 -29 39 -25 10 1
26 -4 35 -12 10 -8 13 -8 9 -1 -4 6 -3 14 2 17 5 4 12 3 14 -1 3 -5 48 -6 101
-3 77 4 100 2 113 -10 9 -8 13 -10 9 -3 -3 6 -2 14 4 18 5 3 10 3 10 -2 0 -4
45 -7 101 -5 69 2 105 0 115 -9 8 -7 14 -8 12 -3 -3 9 5 15 20 13 4 0 27 0 51
1 38 1 43 -1 37 -17 -6 -17 -6 -17 8 0 13 17 30 19 177 18 89 -1 166 -4 170
-7 4 -2 10 0 14 6 4 6 11 8 16 4 5 -3 6 -11 2 -17 -4 -7 -1 -7 9 1 9 7 29 12
45 10 21 -2 7 -10 -62 -31 -49 -16 -154 -48 -232 -73 -79 -25 -146 -45 -150
-46 -5 0 -30 -9 -58 -20 -27 -11 -57 -21 -65 -23 -8 -2 -60 -20 -115 -40 -55
-20 -118 -43 -140 -51 -22 -8 -47 -17 -55 -21 -26 -11 -115 -11 -122 1 -5 8
-8 7 -8 -1 0 -16 -120 -14 -120 2 0 5 -5 3 -10 -5 -8 -12 -13 -13 -29 -3 -10
6 -22 9 -26 5 -12 -12 -125 -11 -125 2 0 8 -3 8 -8 -1 -8 -12 -188 -13 -208
-1 -6 4 -14 4 -18 0 -12 -12 -136 -10 -136 2 0 6 -4 5 -9 -3 -8 -13 -12 -13
-27 0 -11 9 -15 9 -10 2 5 -10 -11 -12 -71 -10 -43 1 -81 6 -85 12 -5 6 -8 6
-8 -1 0 -15 -70 -17 -70 -1 0 9 -2 9 -8 1 -9 -15 -112 -15 -112 0 0 6 -5 4
-10 -4 -8 -12 -13 -13 -29 -3 -10 6 -22 9 -26 5 -11 -12 -119 -10 -127 2 -5 8
-8 7 -8 -1 0 -16 -120 -14 -120 2 0 5 -5 3 -10 -5 -8 -12 -13 -13 -29 -3 -10
6 -22 9 -26 5 -12 -12 -125 -11 -125 2 0 8 -3 8 -8 -1 -8 -12 -188 -13 -208
-1 -6 4 -14 4 -18 0 -12 -12 -136 -10 -136 2 0 6 -4 5 -9 -3 -8 -13 -12 -13
-27 0 -11 9 -15 9 -10 2 5 -10 -11 -12 -71 -10 -43 1 -81 6 -85 12 -5 6 -8 6
-8 -1 0 -15 -70 -17 -70 -1 0 9 -2 9 -8 1 -9 -15 -112 -15 -112 0 0 6 -4 5 -9
-3 -5 -7 -14 -10 -20 -7 -10 7 -16 -6 -12 -28 2 -12 2 -103 -1 -159 -2 -26 0
-47 4 -47 4 0 4 -10 -1 -22 -4 -13 -5 -34 -1 -48 5 -16 2 -31 -8 -43 -13 -15
-13 -17 -1 -12 11 4 14 -4 14 -35 0 -22 -4 -40 -8 -40 -5 0 -5 -5 -1 -11 3 -6
6 -43 5 -82 -3 -176 -2 -290 3 -295 3 -3 1 -11 -5 -19 -6 -7 -8 -13 -3 -13 8
0 9 -118 2 -278 -2 -34 0 -62 4 -62 4 0 4 -10 -1 -22 -4 -13 -5 -34 -1 -48 5
-16 2 -31 -8 -43 -15 -16 -14 -17 2 -11 16 6 17 4 7 -14 -7 -12 -8 -22 -2 -22
19 0 -3 -42 -38 -70 -36 -30 -33 -35 19 -32 21 1 30 -18 20 -43 -5 -13 -5 -26
0 -31 18 -18 -7 -34 -56 -35 -27 -1 -88 -1 -136 1 l-88 3 0 94 c0 72 3 93 13
87 9 -6 9 -4 0 7 -18 19 -18 243 0 233 10 -6 10 -4 0 7 -18 19 -18 243 0 233
10 -6 10 -4 0 7 -18 19 -18 243 0 233 10 -6 10 -4 0 7 -18 19 -18 243 0 233
10 -6 10 -4 0 7 -18 19 -18 243 0 233 10 -6 10 -4 0 7 -8 8 -13 43 -13 95 l0
81 -80 -1 c-47 -1 -80 3 -80 9 0 7 -3 7 -8 0 -10 -14 -85 -14 -94 -1 -5 7 -8
5 -8 -4 0 -13 -1 -13 -10 0 -5 8 -10 11 -10 5 0 -6 -75 -10 -205 -10 -130 0
-205 4 -205 10 0 7 -3 7 -8 0 -4 -5 -16 -10 -27 -10 -11 0 -23 5 -27 10 -5 7
-8 6 -8 0 0 -9 -90 -12 -125 -5 -5 1 -12 1 -15 0 -17 -6 -150 -4 -150 3 0 4
-5 5 -12 1 -17 -10 -148 -12 -148 -1 0 4 -5 5 -12 1 -17 -10 -148 -12 -148 -1
0 4 -5 5 -12 1 -19 -12 -148 -11 -148 1 0 5 -5 3 -10 -5 -9 -13 -10 -13 -10 0
0 9 -3 11 -8 5 -4 -6 -86 -10 -210 -10 -128 0 -202 4 -202 10 0 7 -3 7 -8 0
-4 -5 -16 -10 -27 -10 -11 0 -23 5 -27 10 -5 7 -8 6 -8 0 0 -9 -90 -12 -125
-5 -5 1 -12 1 -15 0 -17 -6 -150 -4 -150 3 0 4 -5 5 -12 1 -17 -10 -148 -12
-148 -1 0 4 -5 5 -12 1 -17 -10 -148 -12 -148 -1 0 4 -5 5 -12 1 -19 -12 -148
-11 -148 1 0 5 -5 3 -10 -5 -9 -13 -10 -13 -10 0 0 9 -3 11 -8 5 -4 -6 -86
-10 -210 -10 -128 0 -202 4 -202 10 0 7 -3 7 -8 0 -4 -5 -16 -10 -27 -10 -11
0 -23 5 -27 10 -5 7 -8 6 -8 0 0 -9 -90 -12 -125 -5 -5 1 -12 1 -15 0 -17 -6
-150 -4 -150 3 0 4 -5 5 -12 1 -17 -10 -148 -12 -148 -1 0 4 -5 5 -12 1 -17
-10 -148 -12 -148 -1 0 4 -5 5 -12 1 -17 -11 -148 -11 -148 -1 0 6 -5 6 -13 0
-6 -5 -32 -9 -57 -8 l-46 0 6 -47 c4 -27 4 -48 1 -48 -3 0 -4 -34 -1 -74 3
-41 2 -85 -1 -98 -3 -13 -2 -33 2 -45 5 -13 5 -23 1 -23 -11 0 -8 -84 3 -92 6
-5 5 -8 -3 -8 -10 0 -10 -5 -2 -20 6 -11 7 -20 2 -20 -10 0 -9 -30 2 -48 4 -7
3 -19 -3 -26 -6 -7 -8 -15 -5 -19 7 -7 11 -327 4 -327 -3 0 -3 -30 0 -66 3
-36 2 -68 -2 -70 -5 -3 -5 -10 -2 -16 8 -12 9 -187 1 -195 -3 -3 -2 -16 3 -29
5 -13 6 -24 2 -24 -11 0 -8 -84 3 -92 6 -5 5 -8 -3 -8 -10 0 -10 -5 -2 -20 6
-11 7 -20 2 -20 -7 0 -8 -28 -2 -50 4 -15 1 -210 -3 -217 -3 -5 36 -8 86 -8
51 1 98 -4 106 -9 11 -8 13 -8 8 1 -9 15 32 14 52 -1 11 -8 13 -8 8 0 -8 13
71 13 93 -1 8 -5 11 -4 7 2 -8 12 132 11 152 -2 9 -5 12 -4 7 3 -8 14 34 12
53 -2 11 -8 13 -8 8 0 -8 13 71 13 93 -1 8 -5 11 -4 7 2 -8 12 113 11 133 -2
8 -5 11 -4 7 2 -7 10 92 11 110 0 5 -4 13 -3 17 0 10 10 217 10 222 1 3 -5 11
-5 17 -1 19 12 270 10 286 -1 11 -8 13 -8 8 1 -9 15 32 14 52 -1 11 -8 13 -8
8 0 -8 13 71 13 93 -1 8 -5 11 -4 7 2 -8 12 132 11 152 -2 9 -5 12 -4 7 3 -8
14 34 12 53 -2 11 -8 13 -8 8 0 -8 13 71 13 93 -1 8 -5 11 -4 7 2 -8 12 113
11 133 -2 8 -5 11 -4 7 2 -7 10 92 11 110 0 5 -4 13 -3 17 0 10 10 217 10 222
1 3 -5 11 -5 17 -1 19 12 270 10 286 -1 11 -8 13 -8 8 1 -9 15 32 14 52 -1 11
-8 13 -8 8 0 -8 13 71 13 93 -1 8 -5 11 -4 7 2 -8 12 132 11 152 -2 9 -5 12
-4 7 3 -8 14 34 12 53 -2 11 -8 13 -8 8 0 -8 13 71 13 93 -1 8 -5 11 -4 7 2
-8 12 113 11 133 -2 8 -5 11 -4 7 2 -7 11 93 11 110 0 7 -4 14 -4 16 1 7 10
108 8 126 -2 9 -6 12 -5 8 1 -4 6 4 11 18 11 14 0 28 -5 31 -9 3 -5 10 -6 16
-2 16 9 169 10 175 1 2 -5 -5 -20 -16 -34 -12 -15 -21 -34 -21 -43 0 -10 -4
-21 -10 -27 -10 -10 -19 -58 -25 -142 -3 -29 -7 -57 -9 -61 -7 -10 -188 -7
-205 3 -8 6 -12 5 -8 0 7 -12 -453 -11 -472 0 -8 6 -12 5 -8 0 3 -6 -39 -9
-103 -9 -60 0 -112 -3 -115 -7 -4 -3 -6 -50 -6 -104 0 -62 -5 -104 -12 -113
-8 -10 -8 -13 -1 -8 16 9 16 -133 1 -152 -9 -11 -9 -13 -1 -8 17 10 18 -131 1
-151 -7 -10 -8 -13 -1 -9 16 9 16 -133 1 -152 -9 -11 -9 -13 -1 -8 17 10 18
-131 1 -151 -7 -10 -8 -13 -1 -9 16 9 16 -133 1 -152 -9 -11 -9 -13 -1 -8 17
10 18 -131 1 -151 -7 -10 -8 -13 -1 -9 16 9 16 -133 1 -152 -9 -11 -9 -13 0
-8 9 6 11 -12 10 -68 -1 -41 2 -75 7 -75 5 0 4 -6 -2 -13 -6 -7 -9 -23 -5 -35
3 -12 -1 -30 -8 -39 -9 -11 -10 -14 -2 -9 9 5 12 -9 10 -57 l-2 -64 107 1 c60
1 108 -3 108 -7 0 -4 9 -3 20 3 15 8 20 8 20 -2 0 -8 3 -9 8 -3 8 12 112 14
112 2 0 -4 9 -3 20 3 14 8 20 8 20 0 0 -6 5 -8 12 -4 15 10 181 10 196 0 7 -4
12 -4 12 1 0 11 102 9 119 -2 8 -5 12 -4 8 1 -7 11 154 11 172 -1 8 -5 12 -4
8 1 -7 12 96 11 105 -1 5 -7 8 -7 8 0 0 12 120 14 120 2 0 -4 9 -3 20 3 15 8
20 8 20 -2 0 -8 3 -9 8 -3 8 12 272 14 272 2 0 -4 9 -3 20 3 15 8 20 8 20 -2
0 -8 3 -9 8 -3 8 12 112 14 112 2 0 -4 9 -3 20 3 14 8 20 8 20 0 0 -6 5 -8 12
-4 15 10 181 10 196 0 7 -4 12 -4 12 1 0 4 25 8 55 8 30 0 55 -4 55 -10 0 -7
3 -7 8 0 4 6 43 10 87 10 44 0 83 -4 87 -10 5 -7 8 -7 8 0 0 6 27 10 59 10 35
0 57 -3 54 -9 -4 -5 -1 -6 7 -1 17 11 120 12 120 2 0 -4 9 -3 19 3 14 7 21 6
24 -3 3 -6 6 -7 6 -2 1 11 181 12 199 1 7 -4 12 -3 12 2 0 5 11 7 25 4 14 -2
24 -7 21 -9 -3 -3 0 -11 7 -18 7 -6 32 -36 57 -65 53 -63 113 -130 158 -178
17 -19 32 -40 32 -46 0 -6 -5 -4 -10 4 -5 8 -10 10 -10 5 0 -6 -11 -11 -25
-11 -14 0 -25 5 -25 11 0 7 -3 7 -8 0 -4 -6 -38 -11 -77 -11 -38 0 -73 5 -77
11 -5 7 -8 7 -8 0 0 -14 -133 -14 -142 0 -5 7 -8 7 -8 -1 0 -14 -30 -14 -30 0
0 7 -3 8 -8 1 -4 -6 -29 -11 -57 -11 -27 0 -53 5 -57 11 -5 7 -8 7 -8 -1 0
-11 -78 -13 -96 -2 -6 4 -14 4 -18 0 -12 -11 -76 -9 -76 2 0 6 -4 5 -9 -2 -4
-8 -12 -14 -16 -14 -4 0 -12 6 -16 14 -5 7 -9 8 -9 2 0 -11 -78 -13 -96 -2 -6
4 -14 4 -18 0 -12 -11 -76 -9 -76 2 0 6 -4 5 -9 -2 -4 -8 -12 -14 -16 -14 -4
0 -12 6 -16 14 -5 7 -9 8 -9 2 0 -11 -78 -13 -96 -2 -6 4 -14 4 -18 0 -12 -11
-76 -9 -76 2 0 6 -4 5 -9 -2 -4 -8 -12 -14 -16 -14 -4 0 -12 6 -16 14 -5 7 -9
8 -9 2 0 -11 -78 -13 -96 -2 -6 4 -14 4 -18 0 -12 -11 -76 -9 -76 2 0 6 -4 5
-9 -2 -4 -8 -12 -14 -16 -14 -4 0 -12 6 -16 14 -5 7 -9 8 -9 3 0 -6 -22 -10
-50 -10 -27 0 -50 3 -50 8 0 4 -6 5 -12 0 -21 -12 -38 -12 -38 0 0 8 -3 7 -9
-1 -4 -8 -12 -14 -16 -14 -4 0 -12 6 -16 14 -5 7 -9 8 -9 3 0 -14 -103 -14
-112 0 -5 7 -8 6 -8 -1 0 -11 -84 -13 -96 -2 -4 4 -14 4 -23 -1 -20 -9 -52 -8
-68 2 -8 5 -13 4 -13 -2 0 -6 -5 -10 -11 -8 -9 1 -12 -97 -13 -376 -1 -324 -3
-379 -16 -388 -13 -9 -13 -10 1 -6 15 5 16 -31 15 -389 -1 -339 -3 -396 -16
-405 -13 -9 -13 -10 1 -6 14 5 17 -3 18 -51 0 -31 -5 -63 -12 -71 -9 -11 -9
-13 0 -8 6 4 14 4 17 -1 2 -4 55 -8 116 -7 61 1 114 -3 116 -7 3 -5 11 -5 17
-1 19 11 97 11 90 0 -4 -6 -1 -7 8 -1 18 11 199 13 205 2 3 -5 11 -5 17 -1 20
12 97 11 90 -1 -5 -8 -3 -8 8 0 17 12 278 13 298 0 8 -6 12 -5 8 0 -6 11 522
12 539 2 6 -4 14 -4 18 -1 11 11 96 11 89 0 -4 -6 -1 -7 8 -1 20 13 281 12
298 0 9 -7 13 -7 9 -1 -7 12 520 14 538 3 6 -4 14 -4 18 -1 11 11 96 11 89 0
-4 -6 -1 -7 8 -1 20 13 281 12 298 0 9 -7 13 -7 9 -1 -7 12 520 14 538 3 6 -4
14 -4 18 -1 12 12 96 11 89 -1 -5 -8 -3 -8 8 0 17 12 278 13 298 0 9 -6 12 -5
8 1 -7 11 82 12 100 0 6 -4 15 -2 19 4 4 8 9 7 15 -2 5 -8 9 -9 9 -4 0 17 79
12 90 -5 5 -8 10 -11 10 -7 0 4 6 3 13 -3 6 -6 50 -38 97 -72 47 -35 94 -71
105 -81 16 -14 34 -18 94 -16 l74 2 54 51 c31 28 75 70 100 94 44 43 83 61 83
39 0 -8 3 -8 8 -2 9 13 62 13 81 1 8 -6 12 -5 8 0 -6 11 522 12 539 2 6 -4 14
-4 18 -1 12 12 96 11 89 -1 -5 -8 -3 -8 8 0 17 12 118 12 138 0 9 -6 12 -5 8
0 -7 12 293 12 312 0 9 -6 12 -5 8 0 -7 12 293 12 312 0 9 -6 12 -5 8 0 -7 12
293 12 312 0 9 -6 12 -5 8 1 -8 12 95 12 104 -1 4 -4 5 -44 2 -88 -4 -73 -2
-81 20 -103 44 -45 54 -46 347 -30 69 3 136 8 150 9 14 2 32 4 40 5 8 1 26 10
39 20 22 17 25 27 26 97 0 44 4 84 7 89 8 13 197 13 217 1 9 -6 12 -5 8 0 -7
12 293 12 312 0 9 -6 12 -5 8 0 -7 12 293 12 312 0 9 -6 12 -5 8 0 -7 12 293
12 312 0 9 -6 12 -5 8 1 -7 11 82 12 100 0 6 -4 15 -2 19 4 4 8 9 7 15 -2 5
-8 9 -9 9 -3 0 6 20 10 49 10 l48 -1 -2 62 c-2 42 1 63 9 63 7 0 7 3 -2 8 -13
9 -12 38 2 61 6 9 5 12 -1 8 -6 -4 -10 11 -10 38 0 26 5 45 11 45 7 0 7 3 1 8
-20 14 -16 42 7 51 19 8 150 48 218 67 17 4 54 -48 43 -60 -3 -3 -1 -6 5 -6 7
0 12 -9 12 -19 0 -11 5 -23 10 -26 23 -14 10 -119 -26 -205 -19 -47 -37 -92
-39 -100 -2 -8 -16 -46 -30 -83 -33 -89 -33 -112 3 -125 29 -10 197 -8 302 3
61 7 133 12 206 14 26 1 33 6 39 29 5 15 9 32 11 37 2 6 9 32 16 58 7 27 17
45 21 40 5 -4 5 0 2 9 -3 8 0 17 7 20 23 8 203 3 217 -6 9 -6 12 -5 8 0 -7 12
293 12 312 0 9 -6 12 -5 8 0 -7 12 293 12 312 0 8 -6 12 -5 8 0 -7 12 453 12
472 0 8 -6 12 -5 8 0 -6 11 522 12 539 2 6 -4 14 -4 18 -1 12 12 96 11 89 -1
-5 -8 -3 -8 8 0 17 12 278 13 298 0 8 -6 12 -5 8 0 -6 11 522 12 539 2 6 -4
14 -4 18 -1 12 12 96 11 89 -1 -5 -8 -3 -8 8 0 17 12 278 13 298 0 8 -6 12 -5
8 0 -3 6 82 9 211 9 120 -1 222 0 227 2 6 2 10 20 9 41 -1 20 3 43 9 51 10 12
9 13 -2 6 -11 -6 -13 -2 -9 19 3 14 1 26 -4 26 -5 0 -6 5 -2 12 10 16 12 78 2
84 -5 3 -5 11 -1 17 10 16 10 367 0 367 -5 0 -5 5 -1 12 10 16 12 78 2 84 -4
3 -4 15 1 27 4 12 6 83 5 157 -1 90 2 140 9 149 8 10 8 13 1 8 -10 -6 -16 119
-13 293 1 25 1 53 0 63 -1 31 -1 40 2 175 1 74 -1 136 -6 139 -4 2 -6 -1 -5
-8 3 -13 -40 -20 -48 -7 -3 4 -11 5 -17 1 -20 -12 -37 -12 -37 0 0 8 -3 7 -9
-1 -4 -8 -12 -14 -16 -14 -4 0 -12 6 -16 14 -5 7 -9 8 -9 2 0 -11 -78 -13 -96
-2 -6 4 -14 4 -18 0 -12 -11 -76 -9 -76 2 0 6 -4 5 -9 -2 -11 -17 -21 -17 -32
0 -5 7 -9 8 -9 2 0 -11 -78 -13 -96 -2 -6 4 -14 4 -18 0 -12 -11 -76 -9 -76 2
0 6 -4 5 -9 -2 -11 -17 -21 -17 -32 0 -5 7 -9 8 -9 3 0 -6 -11 -11 -25 -11
-14 0 -25 5 -25 11 0 7 -3 7 -8 0 -9 -14 -85 -14 -94 0 -5 7 -8 7 -8 -1 0 -11
-78 -13 -96 -2 -6 4 -14 4 -18 0 -12 -11 -76 -9 -76 2 0 6 -4 5 -9 -2 -11 -17
-21 -17 -32 0 -5 7 -9 8 -9 2 0 -11 -78 -13 -96 -2 -6 4 -14 4 -18 0 -12 -11
-76 -9 -76 2 0 7 -3 8 -8 1 -10 -13 -44 -16 -35 -2 4 6 1 7 -8 2 -19 -12 -49
-14 -55 -3 -3 4 -11 5 -17 1 -20 -12 -37 -12 -37 0 0 8 -3 7 -9 -1 -11 -17
-21 -17 -32 0 -5 7 -9 8 -9 2 0 -11 -78 -13 -96 -2 -6 4 -14 4 -18 0 -12 -11
-76 -9 -76 2 0 6 -4 5 -9 -2 -11 -17 -21 -17 -32 0 -5 7 -9 8 -9 2 0 -11 -78
-13 -96 -2 -6 4 -14 4 -18 0 -12 -11 -76 -9 -76 2 0 6 -4 5 -9 -2 -11 -17 -21
-17 -32 0 -5 8 -9 8 -9 2 0 -14 -42 -13 -52 1 -5 6 -8 6 -8 -1 0 -6 -7 -11
-15 -11 -10 0 -14 6 -10 14 3 8 5 17 5 19 0 3 5 2 10 -1 6 -3 10 -1 10 5 0 6
21 33 48 59 26 27 65 70 87 96 103 120 112 127 160 129 37 1 45 -1 40 -14 -4
-13 -4 -13 7 0 15 18 168 22 180 5 5 -7 8 -7 8 0 0 6 27 10 59 10 33 0 57 -3
54 -8 -3 -5 3 -5 13 0 23 10 185 10 202 -1 7 -4 12 -4 12 1 0 4 25 8 55 8 30
0 55 -4 55 -10 0 -7 3 -7 8 0 4 6 14 10 22 10 13 0 15 50 15 370 0 204 4 376
9 384 6 9 5 12 -2 7 -14 -8 -11 56 3 66 6 5 6 8 -1 8 -8 0 -11 49 -10 160 1
105 -2 160 -9 160 -7 0 -7 3 0 8 6 4 10 14 10 22 -1 8 4 21 9 29 8 11 8 13 -1
7 -17 -10 -17 16 0 33 7 9 7 11 1 8 -15 -9 -14 155 1 165 6 5 5 8 -2 8 -7 0
-13 4 -13 9 0 4 31 8 70 8 68 0 70 -1 105 -39 20 -21 54 -50 76 -65 21 -14 39
-30 39 -34 0 -5 6 -8 13 -7 8 2 12 -15 13 -58 0 -34 4 -66 8 -72 3 -5 0 -13
-6 -15 -10 -4 -10 -6 0 -6 7 -1 11 -5 7 -10 -9 -16 -13 -71 -4 -71 4 0 4 -13
-1 -29 -4 -16 -6 -32 -3 -34 2 -3 4 -65 3 -138 0 -74 0 -143 0 -154 0 -11 0
-40 -1 -65 -1 -48 -1 -52 4 -90 2 -14 -1 -33 -5 -42 -5 -10 -5 -18 -1 -18 8 0
8 -74 2 -325 -1 -53 -1 -57 4 -95 2 -14 -1 -33 -5 -42 -5 -11 -5 -18 1 -18 6
0 8 -6 5 -14 -4 -10 10 -13 68 -12 40 1 79 -3 86 -8 7 -5 12 -5 12 0 0 5 25 9
55 9 30 0 55 -4 55 -10 0 -7 3 -7 8 0 4 6 43 10 87 10 44 0 83 -4 87 -10 5 -7
8 -7 8 0 0 6 27 10 59 10 35 0 57 -3 54 -9 -4 -5 -1 -6 7 -1 17 11 120 12 120
2 0 -4 9 -3 19 3 14 7 21 6 24 -3 3 -6 6 -7 6 -2 1 12 341 13 359 1 7 -4 12
-4 12 1 0 4 25 8 55 8 30 0 55 -4 55 -10 0 -7 3 -7 8 0 4 6 43 10 87 10 44 0
83 -4 87 -10 5 -7 8 -7 8 0 0 6 27 10 59 10 35 0 57 -3 54 -9 -4 -5 -1 -6 7
-1 17 11 120 12 120 2 0 -4 9 -3 19 3 14 7 21 6 24 -3 3 -6 6 -7 6 -2 1 11
181 12 199 1 7 -4 12 -4 12 1 0 12 104 10 112 -2 5 -7 8 -7 8 0 0 6 38 9 97 7
54 -1 103 -2 108 -2 6 -1 31 1 58 3 39 2 47 0 42 -13 -4 -13 -4 -13 7 0 10 12
39 15 140 15 71 0 128 -4 128 -8 0 -4 9 -3 20 3 15 8 20 8 20 -2 0 -8 3 -9 8
-3 8 12 112 14 112 2 0 -4 9 -3 20 3 14 8 20 8 20 0 0 -6 5 -8 12 -4 15 10
181 10 196 0 7 -4 12 -4 12 1 0 4 25 8 55 8 30 0 55 -4 55 -10 0 -7 3 -7 8 0
4 6 43 10 87 10 44 0 83 -4 87 -10 5 -7 8 -7 8 0 0 6 27 10 59 10 35 0 57 -3
54 -9 -4 -5 -1 -6 7 -1 17 11 120 12 120 2 0 -4 9 -3 19 3 14 7 21 6 24 -3 3
-6 6 -7 6 -2 1 11 181 12 199 1 7 -4 12 -4 12 1 0 12 104 10 112 -2 5 -7 8 -7
8 0 0 6 44 10 112 9 80 -1 119 3 133 12 11 8 14 14 7 14 -17 0 -16 141 1 159
7 8 7 11 1 8 -12 -7 -26 27 -16 38 3 3 5 26 3 52 -2 30 2 49 11 54 10 7 10 9
1 9 -9 0 -13 21 -13 73 0 45 5 78 13 86 7 8 7 11 1 8 -12 -7 -26 27 -17 37 5
5 7 159 2 182 -1 5 -1 14 0 19 5 29 1 457 -4 465 -3 5 -1 11 3 14 5 3 7 17 4
32 -3 16 1 29 9 35 10 6 10 9 2 9 -18 0 -18 141 0 159 7 8 7 11 1 8 -12 -7
-26 27 -16 38 3 3 5 26 3 52 -2 30 2 49 11 54 10 7 10 9 1 9 -8 0 -13 15 -13
40 0 22 -4 40 -10 40 -18 0 -25 2 -44 12 -13 7 -16 7 -11 -1 8 -14 -31 -11
-54 3 -8 6 -12 5 -8 0 7 -12 -453 -11 -472 0 -8 6 -12 5 -8 0 7 -12 -453 -11
-472 0 -8 6 -12 5 -8 0 7 -12 -453 -11 -472 0 -8 6 -12 5 -8 0 7 -12 -453 -11
-472 0 -8 5 -12 5 -9 0 4 -5 -105 -9 -262 -9 -147 0 -266 3 -264 7 2 4 0 10
-6 13 -6 4 -9 1 -8 -6 2 -10 -63 -13 -314 -14 -174 0 -314 3 -312 7 2 4 0 10
-6 13 -6 4 -9 1 -8 -6 2 -10 -33 -13 -154 -14 l-158 0 -1 35 c-1 45 -6 105 -9
105 -1 0 -4 11 -6 25 -4 19 -40 102 -61 141 -2 3 2 6 9 7 7 1 28 3 46 5 17 2
32 -1 32 -5 0 -5 9 -4 20 2 14 8 20 8 20 0 0 -6 5 -8 12 -4 17 11 58 11 58 1
0 -4 9 -3 19 3 14 7 21 6 24 -3 4 -9 6 -9 6 0 1 9 8 10 24 4 14 -5 30 -5 40 0
11 7 17 6 17 -1 0 -6 5 -8 13 -3 16 10 77 10 77 0 0 -4 9 -3 20 3 13 7 20 7
20 1 0 -7 8 -7 23 -2 13 5 30 5 37 1 8 -5 19 -6 25 -2 14 9 37 9 57 0 10 -5
20 -4 23 2 5 7 11 8 19 1 7 -6 17 -6 26 -1 9 5 19 5 27 -2 10 -8 12 -7 7 5 -3
8 -1 24 5 35 7 13 7 23 -2 32 -9 10 -9 14 1 17 6 3 9 10 6 15 -10 16 -12 118
-2 124 5 3 6 10 2 15 -3 6 -7 28 -9 50 -2 28 0 37 8 32 9 -5 9 -3 0 8 -15 19
-5 33 27 36 54 5 105 11 105 13 0 2 41 7 100 10 28 2 54 6 60 9 5 3 23 6 40 8
138 11 385 99 485 172 57 41 153 145 179 192 23 43 61 144 60 157 -1 4 0 9 1
12 6 17 11 53 14 107 2 34 6 66 10 71 3 5 3 12 -1 15 -3 4 -7 33 -8 64 -3 71
-11 122 -37 238 -29 134 -30 135 -40 135 -5 0 -7 4 -4 9 12 19 -68 247 -130
369 -13 25 -20 50 -17 55 3 6 1 7 -4 4 -6 -4 -13 0 -17 8 -4 12 3 15 35 15 35
0 40 -3 35 -17 -6 -17 -5 -16 8 0 8 10 22 18 33 18 211 2 308 -3 321 -14 11
-8 14 -8 9 0 -4 6 -3 14 2 17 5 4 12 3 14 -1 3 -5 48 -6 101 -3 77 4 100 2
113 -10 9 -8 13 -10 9 -3 -3 6 -2 14 4 18 5 3 10 3 10 -2 0 -4 45 -7 101 -5
72 2 105 0 117 -10 10 -8 13 -9 9 -1 -4 6 -3 14 2 17 5 4 12 3 14 -1 3 -5 48
-6 101 -3 77 4 100 2 113 -10 9 -8 13 -10 9 -3 -3 6 -2 14 4 18 5 3 10 3 10
-2 0 -4 62 -7 137 -5 171 4 164 3 155 16 -9 14 -8 478 2 494 3 6 3 13 -1 15
-10 6 -9 609 1 625 3 6 3 13 -1 15 -5 3 -8 129 -7 280 l1 275 -28 -8 c-15 -5
-30 -6 -33 -3 -9 10 -76 10 -76 1 0 -5 -5 -6 -12 -2 -16 10 -89 11 -95 2 -2
-5 -10 -5 -16 -1 -6 4 -24 6 -40 5 -21 -2 -26 1 -21 10 4 7 -2 4 -14 -6 -12
-11 -22 -15 -22 -9 0 6 -17 8 -37 6 -38 -4 -43 -4 -85 -1 -13 0 -27 0 -33 -2
-27 -7 -56 1 -49 13 6 8 3 8 -9 -1 -9 -8 -21 -11 -26 -8 -5 4 -12 2 -16 -4 -4
-6 -11 -7 -18 -3 -15 9 -178 10 -184 0 -2 -4 -9 -5 -14 -1 -17 10 -59 12 -65
2 -3 -4 -10 -6 -15 -2 -17 10 -59 12 -65 2 -3 -4 -10 -6 -15 -2 -17 10 -59 12
-65 3 -3 -5 -14 -5 -24 1 -13 7 -20 6 -23 -3 -3 -7 -6 -8 -6 -1 -1 10 -68 10
-98 -1 -7 -2 -13 -1 -13 3 0 10 -71 9 -87 -1 -7 -5 -13 -4 -13 1 0 5 -12 7
-26 4 -20 -4 -25 -2 -19 8 4 7 -3 5 -17 -4 -14 -9 -27 -14 -30 -11 -11 11 -68
12 -68 1 0 -7 -3 -7 -8 -1 -8 12 -72 13 -90 1 -6 -4 -12 -3 -12 2 0 5 -23 7
-51 5 -37 -2 -49 0 -43 8 5 8 3 9 -7 3 -8 -5 -30 -9 -49 -10 -19 -1 -37 -3
-40 -4 -3 -1 -9 -1 -15 0 -32 7 -56 6 -61 -2 -3 -4 -10 -6 -15 -2 -17 10 -59
12 -65 2 -3 -4 -10 -6 -15 -2 -17 10 -59 12 -65 3 -3 -5 -14 -4 -25 1 -13 8
-19 7 -19 0 0 -6 -5 -8 -12 -4 -16 10 -89 11 -95 2 -2 -5 -10 -5 -16 -1 -6 4
-24 6 -40 5 -21 -2 -26 1 -21 10 4 7 -2 4 -14 -6 -12 -11 -22 -15 -22 -9 0 6
-17 8 -37 6 -38 -4 -43 -4 -85 -1 -13 0 -27 0 -33 -2 -27 -7 -56 1 -49 13 6 8
3 8 -9 -1 -9 -8 -21 -11 -26 -8 -5 4 -12 2 -16 -4 -4 -6 -11 -7 -18 -3 -15 9
-178 10 -184 0 -2 -4 -9 -5 -14 -1 -17 10 -59 12 -65 2 -3 -4 -10 -6 -15 -2
-17 10 -59 12 -65 2 -3 -4 -10 -6 -15 -2 -17 10 -59 12 -65 2 -3 -4 -9 -6 -14
-3 -16 10 -70 12 -76 4 -3 -5 -10 -6 -16 -3 -9 6 -89 8 -113 4 -5 -1 -14 -1
-20 0 -28 7 -75 5 -75 -2 0 -5 -8 -5 -17 -1 -22 11 -64 10 -80 0 -7 -5 -13 -4
-13 1 0 5 -12 7 -26 4 -21 -4 -25 -2 -19 9 7 11 6 12 -6 2 -8 -6 -24 -10 -34
-9 -11 2 -27 0 -36 -5 -9 -5 -19 -5 -23 -2 -5 6 -144 8 -163 3 -5 -1 -12 -1
-18 0 -12 2 -96 2 -110 0 -5 -1 -14 -1 -20 0 -28 7 -75 5 -75 -2 0 -5 -8 -5
-17 -1 -22 11 -64 10 -80 0 -7 -5 -13 -4 -13 1 0 5 -12 7 -26 4 -21 -4 -25 -2
-19 9 7 11 6 12 -6 2 -9 -7 -25 -11 -37 -8 -12 2 -22 -1 -22 -7 0 -7 -4 -7
-12 -1 -12 8 -18 9 -45 4 -5 0 -8 -381 -8 -845 0 -561 -3 -842 -10 -838 -5 3
-1 -4 9 -17 13 -14 23 -18 30 -11 6 6 16 4 30 -8 11 -9 16 -12 13 -5 -4 6 -3
14 3 18 5 3 10 3 10 -2 0 -4 45 -7 101 -5 72 2 105 0 117 -10 10 -8 13 -9 9
-1 -4 6 -3 14 2 17 5 4 12 3 14 -1 3 -5 48 -6 101 -3 77 4 100 2 113 -10 9 -8
13 -10 9 -3 -3 6 -2 14 4 18 5 3 10 3 10 -2 0 -4 45 -7 101 -5 72 2 105 0 117
-10 10 -8 13 -9 9 -1 -4 6 -3 14 2 17 5 4 12 3 14 -1 3 -5 48 -6 101 -3 77 4
100 2 113 -10 9 -8 13 -10 9 -3 -3 6 -2 14 4 18 5 3 10 3 10 -2 0 -4 244 -7
542 -5 576 3 853 3 872 -1 15 -3 55 -48 62 -72 4 -10 13 -25 20 -33 8 -7 12
-18 9 -23 -4 -5 -2 -9 3 -9 4 0 19 -24 32 -52 32 -72 91 -220 95 -238 2 -8 10
-36 19 -61 9 -25 18 -56 20 -70 3 -13 5 -24 6 -24 1 0 3 -9 5 -20 2 -11 6 -31
9 -45 24 -105 28 -143 29 -290 0 -117 -6 -173 -26 -219 -5 -14 -11 -28 -12
-31 -6 -21 -42 -70 -52 -70 -6 0 -13 -3 -15 -7 -3 -7 -27 -19 -146 -70 -19 -8
-36 -12 -39 -9 -4 3 -11 2 -17 -3 -6 -5 -25 -11 -43 -14 -17 -3 -37 -8 -42
-12 -6 -3 -28 -8 -48 -10 -21 -2 -50 -6 -65 -9 -38 -8 -90 -17 -108 -17 -8 0
-22 -3 -30 -6 -8 -3 -33 -7 -55 -8 -22 -2 -65 -6 -95 -9 l-55 -5 -1 29 c-1 20
2 27 10 23 6 -4 5 1 -3 10 -7 9 -10 17 -5 18 5 0 18 2 29 4 19 4 165 17 193
18 6 0 12 4 12 9 0 4 3 7 8 6 12 -3 75 13 102 27 14 7 55 27 93 46 37 18 76
41 87 51 11 10 20 16 20 13 0 -15 118 99 138 134 23 41 23 124 -2 216 -10 38
-31 90 -39 96 -5 3 -8 9 -7 13 4 11 -44 126 -52 126 -5 0 -8 7 -8 16 0 8 -17
50 -39 92 -66 133 -120 210 -223 317 -59 61 -66 66 -59 40 14 -46 82 -248 91
-270 16 -37 58 -175 60 -197 0 -4 7 -25 14 -45 18 -54 12 -112 -20 -174 -14
-30 -30 -56 -34 -59 -5 -3 -22 -23 -39 -44 -17 -21 -31 -36 -31 -33 0 4 -15
-8 -33 -26 -47 -46 -121 -81 -205 -97 -35 -6 -44 -5 -51 9 -7 14 -8 54 -1 71
1 3 1 10 0 15 -9 41 -7 84 3 78 9 -5 9 -3 0 8 -7 9 -9 20 -3 29 6 9 4 20 -3
29 -10 12 -9 13 2 6 10 -6 12 -4 7 4 -14 22 -16 92 -3 85 9 -5 9 -3 0 6 -9 9
-9 19 -2 33 8 14 8 18 0 13 -13 -9 -14 4 -1 24 6 9 5 19 -2 28 -9 10 -8 16 3
23 8 5 9 9 4 9 -16 0 -13 64 4 78 13 10 13 12 2 10 -12 -2 -15 15 -16 90 0 54
3 92 9 92 6 0 5 5 -1 11 -7 7 -49 12 -100 13 -48 1 -93 4 -99 8 -6 4 -14 4
-18 0 -12 -12 -136 -10 -136 2 0 6 -4 5 -9 -3 -8 -13 -12 -13 -27 0 -11 9 -15
9 -10 2 5 -10 -11 -12 -71 -10 -43 1 -81 6 -85 12 -5 6 -8 6 -8 -1 0 -15 -70
-17 -70 -1 0 9 -2 9 -8 1 -9 -15 -192 -14 -192 0 0 6 -4 5 -9 -3 -8 -13 -12
-13 -27 0 -10 8 -15 9 -11 3 5 -9 -30 -12 -133 -11 -88 1 -140 5 -140 12 0 5
-5 3 -10 -5 -8 -12 -13 -13 -29 -3 -11 7 -22 9 -25 5 -2 -4 -21 -9 -41 -10
-28 -2 -35 0 -29 10 6 10 5 10 -7 2 -18 -15 -99 -14 -99 0 0 6 -5 4 -10 -4 -8
-12 -13 -13 -29 -3 -10 6 -22 9 -26 5 -12 -12 -125 -11 -125 2 0 8 -3 8 -8 -1
-8 -12 -188 -13 -208 -1 -6 4 -14 4 -18 0 -12 -12 -136 -10 -136 2 0 6 -4 5
-9 -3 -8 -13 -12 -13 -27 0 -11 9 -15 9 -10 2 5 -10 -11 -12 -71 -10 -43 1
-81 6 -85 12 -5 6 -8 6 -8 -1 0 -15 -70 -17 -70 -1 0 9 -2 9 -8 1 -9 -15 -112
-15 -112 0 0 6 -5 4 -10 -4 -8 -12 -13 -13 -29 -3 -10 6 -22 9 -26 5 -11 -12
-119 -10 -127 2 -6 8 -8 8 -8 -1 0 -15 -200 -13 -200 2 0 5 -4 4 -9 -4 -8 -13
-12 -13 -27 0 -10 8 -15 9 -11 3 5 -9 -30 -12 -133 -11 -88 1 -140 5 -140 12
0 5 -5 3 -10 -5 -8 -12 -13 -13 -29 -3 -11 7 -22 9 -25 5 -2 -4 -21 -9 -41
-10 -28 -2 -35 0 -29 10 6 10 5 10 -7 2 -16 -13 -167 -14 -186 -1 -6 4 -14 3
-17 -2 -8 -13 -152 -7 -169 7 -8 7 -17 9 -20 5 -4 -3 -7 0 -7 7 0 7 -3 11 -6
7 -5 -5 -60 15 -162 60 -18 8 -99 39 -180 69 -81 30 -154 58 -162 61 -8 3 -17
7 -20 7 -41 9 -102 31 -106 37 -3 5 -16 9 -30 9 -13 0 -24 5 -24 11 0 5 -4 8
-9 5 -5 -3 -26 1 -47 8 l-39 15 46 0 c25 1 51 -5 58 -11 11 -10 13 -10 7 0 -5
7 -1 12 11 12 10 0 283 0 607 0 452 0 593 -3 605 -13 10 -8 13 -9 8 0 -4 6 -3
14 2 17 5 4 12 3 14 -1 3 -5 48 -6 101 -3 77 4 100 2 113 -10 9 -8 13 -10 9
-3 -3 6 -2 14 4 18 5 3 10 3 10 -2 0 -4 45 -7 101 -5 72 2 105 0 117 -10 10
-8 13 -9 9 -1 -4 6 -3 14 2 17 5 4 12 3 14 -1 3 -5 48 -6 101 -3 77 4 100 2
113 -10 9 -8 13 -10 9 -3 -3 6 -2 14 4 18 5 3 10 3 10 -2 0 -4 16 -8 35 -8 29
0 37 5 41 22 3 12 3 26 0 32 -4 5 -2 12 3 16 6 3 8 12 5 19 -7 19 -10 136 -3
136 4 0 3 18 -1 40 -4 22 -4 43 1 46 4 2 6 11 3 18 -3 8 -6 53 -7 100 -2 64 1
85 10 82 7 -3 15 -1 18 5 4 5 1 8 -7 7 -8 -2 -13 7 -14 22 0 14 -3 31 -7 37
-4 6 -1 14 5 16 10 4 10 6 1 6 -9 1 -10 8 -2 28 7 19 6 28 -2 34 -7 4 -8 12
-3 20 11 18 13 49 3 49 -8 0 -4 33 6 50 3 6 1 10 -5 10 -6 0 -8 5 -3 13 10 15
10 35 1 69 -4 17 -2 29 5 32 8 3 7 8 -3 15 -12 8 -12 11 -1 11 10 0 11 3 2 14
-7 8 -8 17 -3 20 5 3 8 20 5 38 -7 55 -8 178 -2 178 4 0 3 18 -1 40 -4 22 -4
43 1 46 4 2 6 11 3 18 -3 8 -6 53 -7 100 -2 64 1 85 10 82 7 -3 15 -1 18 5 4
5 1 8 -7 7 -8 -2 -13 7 -13 25 1 15 -2 27 -5 27 -3 0 -4 26 -3 57 1 32 2 58 3
58 7 0 6 36 0 40 -5 3 -7 11 -4 18 3 8 -4 13 -16 13 -11 0 -20 -4 -20 -8 0 -5
-8 -5 -17 -1 -22 11 -64 10 -80 0 -7 -5 -13 -4 -13 1 0 5 -12 7 -26 4 -21 -4
-25 -2 -19 9 7 11 6 12 -6 2 -8 -6 -24 -10 -34 -9 -11 2 -27 0 -36 -5 -9 -5
-19 -5 -23 -2 -5 6 -144 8 -163 3 -5 -1 -12 -1 -18 0 -12 2 -96 2 -110 0 -5
-1 -14 -1 -20 0 -28 7 -75 5 -75 -2 0 -5 -8 -5 -17 -1 -22 11 -64 10 -80 0 -7
-5 -13 -4 -13 1 0 5 -12 7 -26 4 -21 -4 -25 -2 -19 9 7 11 6 12 -6 2 -8 -6
-24 -10 -34 -9 -11 2 -27 0 -36 -5 -9 -5 -19 -5 -23 -2 -10 11 -116 9 -120 -2
-3 -6 -5 -6 -5 1 -1 10 -68 10 -98 -1 -7 -2 -13 -1 -13 3 0 10 -71 9 -87 -1
-7 -5 -13 -4 -13 1 0 5 -12 7 -26 4 -20 -4 -25 -2 -19 8 4 7 -3 5 -17 -4 -14
-9 -27 -14 -30 -11 -11 11 -68 12 -68 1 0 -7 -3 -7 -8 -1 -8 12 -72 13 -90 1
-6 -4 -12 -3 -12 2 0 5 -23 7 -51 5 -37 -2 -49 0 -43 8 5 8 3 9 -7 3 -8 -5
-30 -9 -49 -10 -19 -1 -37 -3 -40 -4 -3 -1 -9 -1 -15 0 -32 7 -56 6 -61 -2 -3
-4 -10 -6 -15 -2 -17 10 -59 12 -65 2 -3 -4 -10 -6 -15 -2 -17 10 -59 12 -65
3 -3 -5 -14 -4 -25 1 -13 8 -19 7 -19 0 0 -6 -5 -8 -12 -4 -16 10 -89 11 -95
2 -2 -5 -10 -5 -16 -1 -6 4 -24 6 -40 5 -21 -2 -26 1 -21 10 4 7 -2 4 -14 -6
-12 -11 -22 -15 -22 -9 0 6 -17 8 -37 6 -38 -4 -43 -4 -85 -1 -13 0 -27 0 -33
-2 -27 -7 -56 1 -49 13 6 8 3 8 -9 -1 -9 -8 -21 -11 -26 -8 -5 4 -12 2 -16 -4
-4 -6 -11 -7 -18 -3 -15 9 -178 10 -184 0 -2 -4 -9 -5 -14 -1 -17 10 -59 12
-65 2 -3 -4 -10 -6 -15 -2 -17 10 -59 12 -65 2 -3 -4 -10 -6 -15 -2 -17 10
-59 12 -65 3 -3 -5 -14 -5 -24 1 -13 7 -20 6 -23 -3 -3 -7 -6 -8 -6 -1 -1 10
-68 10 -98 -1 -7 -2 -13 -1 -13 3 0 10 -71 9 -87 -1 -7 -5 -13 -4 -13 1 0 5
-12 7 -26 4 -20 -4 -25 -2 -19 8 4 7 -3 5 -17 -4 -14 -9 -27 -14 -30 -11 -11
11 -68 12 -68 1 0 -7 -3 -7 -8 -1 -8 12 -72 13 -90 1 -6 -4 -12 -3 -12 2 0 5
-23 7 -51 5 -39 -3 -49 -1 -43 9 6 10 3 9 -9 -1 -9 -7 -23 -11 -31 -8 -8 3
-17 1 -20 -6 -3 -8 -5 -8 -5 -1 -1 10 -68 10 -98 -1 -7 -2 -13 -1 -13 3 0 10
-71 9 -87 -1 -7 -5 -13 -4 -13 1 0 5 -12 7 -26 4 -21 -4 -25 -2 -19 9 8 12 6
12 -8 0 -14 -11 -20 -11 -34 0 -14 12 -16 12 -8 0 6 -11 3 -13 -13 -9 -12 4
-22 2 -22 -4 0 -5 -6 -6 -12 -1 -17 10 -59 11 -80 0 -10 -4 -18 -4 -18 1 0 5
-29 7 -65 6 -47 -2 -64 0 -59 8 5 7 3 8 -5 4 -7 -5 -12 -20 -11 -34 1 -15 1
-31 1 -37 -1 -5 -2 -281 -2 -612 0 -458 -3 -603 -12 -603 -9 0 -9 -2 0 -8 6
-4 11 -28 11 -53 0 -44 0 -45 -31 -42 -18 1 -58 3 -89 4 -32 1 -58 3 -58 5 0
3 17 22 37 43 41 44 45 55 45 127 0 96 -67 194 -164 238 l-56 27 1 77 c1 42 6
83 11 91 6 9 5 12 -1 8 -13 -8 -12 572 1 592 6 9 5 12 -1 8 -6 -4 -10 12 -11
38 -2 30 2 45 10 45 10 0 10 2 0 9 -8 5 -12 20 -10 36 2 23 -1 29 -19 30 -13
1 -23 -2 -23 -7 0 -5 -5 -6 -12 -2 -16 10 -89 11 -95 2 -2 -5 -10 -5 -16 -1
-6 4 -24 6 -40 5 -21 -2 -26 1 -21 10 4 7 -2 4 -14 -6 -12 -11 -22 -15 -22 -9
0 6 -17 8 -37 6 -38 -4 -43 -4 -85 -1 -13 0 -27 0 -33 -2 -27 -7 -56 1 -49 13
6 8 3 8 -9 -1 -9 -8 -21 -11 -26 -8 -5 4 -12 2 -16 -4 -4 -6 -11 -7 -18 -3
-15 9 -178 10 -184 0 -2 -4 -9 -5 -14 -1 -17 10 -59 12 -65 2 -3 -4 -10 -6
-15 -2 -17 10 -59 12 -65 2 -3 -4 -10 -6 -15 -2 -17 10 -59 12 -65 3 -3 -5
-14 -5 -24 1 -13 7 -20 6 -23 -3 -3 -7 -6 -8 -6 -1 -1 10 -68 10 -98 -1 -7 -2
-13 -1 -13 3 0 10 -71 9 -87 -1 -7 -5 -13 -4 -13 1 0 5 -12 7 -26 4 -20 -4
-25 -2 -19 8 4 7 -3 5 -17 -4 -14 -9 -27 -14 -30 -11 -11 11 -68 12 -68 1 0
-7 -3 -7 -8 -1 -8 12 -72 13 -90 1 -6 -4 -12 -3 -12 2 0 5 -23 7 -51 5 -37 -2
-49 0 -43 8 5 8 3 9 -7 3 -8 -5 -30 -9 -49 -10 -19 -1 -37 -3 -40 -4 -3 -1 -9
-1 -15 0 -32 7 -56 6 -61 -2 -3 -4 -10 -6 -15 -2 -17 10 -59 12 -65 2 -3 -4
-10 -6 -15 -2 -17 10 -59 12 -65 3 -3 -5 -14 -4 -25 1 -13 8 -19 7 -19 0 0 -6
-5 -8 -12 -4 -16 10 -89 11 -95 2 -2 -5 -10 -5 -16 -1 -6 4 -24 6 -40 5 -21
-2 -26 1 -21 10 4 7 -2 4 -14 -6 -12 -11 -22 -15 -22 -9 0 6 -17 8 -37 6 -38
-4 -43 -4 -85 -1 -13 0 -27 0 -33 -2 -27 -7 -56 1 -49 13 6 8 3 8 -9 -1 -9 -8
-21 -11 -26 -8 -5 4 -12 2 -16 -4 -4 -6 -11 -7 -18 -3 -15 9 -178 10 -184 0
-2 -4 -9 -5 -14 -1 -17 10 -59 12 -65 2 -3 -4 -10 -6 -15 -2 -17 10 -59 12
-65 2 -3 -4 -10 -6 -15 -2 -17 10 -59 12 -65 3 -3 -5 -14 -5 -24 1 -13 7 -20
6 -23 -3 -3 -7 -6 -8 -6 -1 -1 10 -68 10 -98 -1 -7 -2 -13 -1 -13 3 0 10 -71
9 -87 -1 -7 -5 -13 -4 -13 1 0 5 -12 7 -26 4 -20 -4 -25 -2 -19 8 4 7 -3 5
-17 -4 -14 -9 -27 -14 -30 -11 -11 11 -68 12 -68 1 0 -7 -3 -7 -8 -1 -8 12
-72 13 -90 1 -6 -4 -12 -3 -12 2 0 5 -23 7 -51 5 -37 -2 -49 0 -43 8 5 8 3 9
-7 3 -8 -5 -30 -9 -49 -10 -19 -1 -37 -3 -40 -4 -3 -1 -9 -1 -15 0 -32 7 -56
6 -61 -2 -3 -4 -10 -6 -15 -2 -17 10 -59 12 -65 2 -3 -4 -10 -6 -15 -2 -17 10
-59 12 -65 3 -3 -5 -14 -4 -25 1 -13 8 -19 7 -19 0 0 -6 -5 -8 -12 -4 -16 10
-89 11 -95 2 -2 -5 -10 -5 -16 -1 -6 4 -24 6 -40 5 -17 -2 -26 2 -22 8 9 15 1
12 -18 -7z m2109 -3538 c1 -27 -2 -52 -7 -55 -4 -3 -74 -5 -156 -5 l-148 1 -2
49 c-2 27 2 52 8 55 5 4 76 6 157 6 l147 -1 1 -50z m4530 -2 c0 -29 -4 -54
-10 -56 -9 -3 -262 -1 -305 2 -11 1 -10 6 4 21 13 14 14 19 4 15 -11 -4 -14 3
-14 27 0 18 4 36 9 39 5 4 77 6 160 5 l151 -1 1 -52z m-5472 -3852 c3 -5 -1
-11 -9 -15 -9 -3 -15 0 -15 9 0 16 16 20 24 6z"/>
<path d="M3716 11242 c-3 -5 1 -9 9 -9 8 0 12 4 9 9 -3 4 -7 8 -9 8 -2 0 -6
-4 -9 -8z"/>
<path d="M3795 9480 c3 -5 8 -10 11 -10 2 0 4 5 4 10 0 6 -5 10 -11 10 -5 0
-7 -4 -4 -10z"/>
<path d="M5875 9480 c3 -5 8 -10 11 -10 2 0 4 5 4 10 0 6 -5 10 -11 10 -5 0
-7 -4 -4 -10z"/>
<path d="M16435 9480 c3 -5 8 -10 11 -10 2 0 4 5 4 10 0 6 -5 10 -11 10 -5 0
-7 -4 -4 -10z"/>
<path d="M17715 9480 c3 -5 8 -10 11 -10 2 0 4 5 4 10 0 6 -5 10 -11 10 -5 0
-7 -4 -4 -10z"/>
<path d="M18675 9480 c3 -5 8 -10 11 -10 2 0 4 5 4 10 0 6 -5 10 -11 10 -5 0
-7 -4 -4 -10z"/>
<path d="M19475 9480 c3 -5 8 -10 11 -10 2 0 4 5 4 10 0 6 -5 10 -11 10 -5 0
-7 -4 -4 -10z"/>
<path d="M19795 9480 c3 -5 8 -10 11 -10 2 0 4 5 4 10 0 6 -5 10 -11 10 -5 0
-7 -4 -4 -10z"/>
<path d="M20595 9480 c3 -5 8 -10 11 -10 2 0 4 5 4 10 0 6 -5 10 -11 10 -5 0
-7 -4 -4 -10z"/>
<path d="M21395 9480 c3 -5 8 -10 11 -10 2 0 4 5 4 10 0 6 -5 10 -11 10 -5 0
-7 -4 -4 -10z"/>
<path d="M21510 9486 c0 -2 7 -7 16 -10 8 -3 12 -2 9 4 -6 10 -25 14 -25 6z"/>
<path d="M18279 9203 c-3 -23 -4 -28 -13 -42 -6 -9 -5 -12 1 -8 6 4 13 -2 16
-13 3 -11 2 -22 -2 -24 -3 -2 -6 -26 -5 -53 1 -26 -4 -54 -10 -62 -8 -11 -8
-13 2 -7 11 6 17 -11 13 -37 -1 -4 -1 -18 -1 -30 0 -12 -1 -40 -1 -62 0 -22 0
-46 0 -52 2 -30 2 -41 -1 -100 -2 -36 1 -65 7 -68 7 -3 7 -7 0 -10 -6 -3 -9
-22 -7 -43 4 -47 4 -45 0 -119 -2 -36 1 -65 7 -68 7 -3 7 -7 0 -10 -6 -3 -9
-22 -7 -43 5 -63 0 -132 -12 -151 -6 -9 -5 -12 1 -8 6 4 13 -2 16 -13 3 -11 2
-22 -2 -24 -3 -2 -6 -26 -5 -53 1 -26 -4 -54 -10 -62 -8 -11 -8 -13 2 -7 11 7
18 -12 13 -38 -7 -37 -4 -147 4 -151 7 -3 7 -7 0 -10 -6 -3 -9 -22 -7 -43 4
-47 4 -45 0 -119 -2 -35 1 -63 5 -63 5 0 6 -4 2 -9 -8 -14 -13 -71 -6 -71 4 0
6 -13 5 -30 -1 -20 2 -28 9 -23 19 12 160 10 176 -1 9 -7 13 -7 9 -1 -7 12
520 14 538 3 6 -4 14 -4 18 -1 11 11 96 11 89 0 -4 -6 -1 -7 8 -1 20 13 281
12 298 0 9 -7 13 -7 9 -1 -7 12 520 14 538 3 6 -4 14 -4 18 -1 12 12 96 11 89
-1 -5 -8 -3 -8 8 0 17 12 278 13 298 0 8 -6 12 -5 8 0 -6 11 522 12 539 2 6
-4 14 -4 18 -1 11 11 96 11 89 0 -4 -6 -1 -7 8 -1 20 13 281 12 298 0 9 -7 13
-7 9 -1 -7 12 520 14 538 3 6 -4 14 -4 18 -1 11 11 96 11 89 0 -4 -6 -1 -7 8
-1 20 13 281 12 298 0 10 -8 13 -8 9 -1 -4 7 11 11 42 11 28 0 46 -4 43 -10
-4 -5 -1 -6 8 0 8 5 25 9 39 9 29 0 52 13 45 24 -3 6 -6 250 -4 321 1 8 1 62
0 120 0 58 0 112 0 120 1 15 0 175 -1 340 -1 47 -1 92 -1 100 0 8 0 67 0 130
-1 63 -1 121 0 128 0 6 0 55 0 107 0 52 0 103 0 113 2 173 0 196 -17 208 -9 7
-21 9 -27 6 -16 -11 -69 -9 -77 3 -5 7 -8 7 -8 -1 0 -11 -78 -13 -96 -2 -6 4
-14 4 -18 0 -12 -11 -76 -9 -76 2 0 6 -4 5 -9 -2 -4 -8 -12 -14 -16 -14 -4 0
-12 6 -16 14 -5 7 -9 8 -9 2 0 -11 -78 -13 -96 -2 -6 4 -14 4 -18 0 -12 -11
-76 -9 -76 2 0 6 -4 5 -9 -2 -11 -17 -21 -17 -32 0 -5 7 -9 8 -9 3 0 -6 -22
-10 -50 -10 -27 0 -50 3 -50 8 0 4 -4 5 -10 2 -20 -12 -50 -14 -50 -2 0 8 -3
8 -8 2 -9 -14 -145 -14 -154 0 -5 7 -8 7 -8 0 0 -6 -31 -10 -75 -10 -44 0 -75
4 -75 10 0 7 -3 7 -8 0 -4 -6 -38 -11 -77 -11 -38 0 -73 5 -77 11 -5 7 -8 7
-8 0 0 -12 -109 -14 -126 -3 -6 4 -14 4 -18 1 -12 -12 -36 -12 -36 0 0 8 -3 8
-8 2 -4 -6 -29 -11 -57 -11 -27 0 -53 5 -57 11 -5 7 -8 7 -8 -1 0 -11 -78 -13
-96 -2 -6 4 -14 4 -18 0 -12 -11 -76 -9 -76 2 0 6 -4 5 -9 -2 -11 -17 -21 -17
-32 0 -5 7 -9 8 -9 2 0 -11 -78 -13 -96 -2 -6 4 -14 4 -18 0 -12 -11 -76 -9
-76 2 0 6 -4 5 -9 -2 -4 -8 -12 -14 -16 -14 -4 0 -12 6 -16 14 -5 7 -9 8 -9 2
0 -11 -78 -13 -96 -2 -6 4 -14 4 -18 0 -12 -11 -76 -9 -76 2 0 6 -4 5 -9 -2
-4 -8 -12 -14 -16 -14 -4 0 -12 6 -16 14 -5 7 -9 8 -9 2 0 -11 -78 -13 -96 -2
-6 4 -14 4 -18 0 -12 -11 -76 -9 -76 2 0 7 -3 8 -8 1 -10 -14 -32 -17 -32 -4
0 8 -4 8 -12 2 -7 -5 -31 -8 -53 -6 -22 1 -44 3 -50 4 -5 0 -20 -2 -32 -5 -14
-3 -23 0 -23 7 0 8 -3 8 -8 2 -4 -6 -38 -11 -77 -11 -38 0 -73 5 -77 11 -5 7
-8 7 -8 0 0 -14 -150 -14 -150 0 0 7 -3 7 -8 0 -4 -6 -38 -11 -77 -11 -38 0
-73 5 -77 11 -5 7 -8 7 -8 0 0 -14 -133 -14 -142 0 -5 7 -8 7 -8 -1 0 -6 -7
-11 -15 -11 -8 0 -15 5 -15 11 0 7 -3 8 -8 1 -4 -6 -29 -11 -57 -11 -27 0 -53
5 -57 11 -5 7 -8 7 -8 -1 0 -11 -78 -13 -96 -2 -6 4 -14 4 -18 0 -12 -11 -76
-9 -76 2 0 6 -4 5 -9 -2 -4 -8 -12 -14 -16 -14 -4 0 -12 6 -16 14 -5 7 -9 8
-9 2 0 -11 -78 -13 -96 -2 -6 4 -14 4 -18 0 -12 -11 -76 -9 -76 2 0 6 -4 5 -9
-2 -4 -8 -12 -14 -16 -14 -4 0 -12 6 -16 14 -5 7 -9 8 -9 2 0 -11 -78 -13 -96
-2 -6 4 -14 4 -18 1 -10 -10 -66 -11 -72 -1 -3 5 -12 3 -21 -3 -12 -10 -16
-10 -24 2 -6 10 -9 10 -10 2z"/>
<path d="M226 9065 c1 -77 -3 -123 -10 -127 -8 -6 -8 -8 0 -8 15 0 15 -103 0
-112 -8 -6 -8 -8 2 -8 6 0 12 -9 12 -20 0 -11 -6 -20 -12 -20 -9 0 -9 -3 -3
-8 15 -10 18 -105 3 -96 -7 5 -8 2 -2 -7 13 -21 14 -113 0 -121 -7 -5 -7 -8 0
-8 15 0 15 -183 0 -192 -8 -6 -8 -8 2 -8 6 0 12 -9 12 -20 0 -11 -6 -20 -12
-20 -9 0 -9 -3 -3 -8 15 -10 15 -135 1 -144 -7 -5 -8 -8 0 -8 15 0 15 -90 0
-90 -7 0 -8 -3 -1 -8 15 -10 16 -165 2 -174 -9 -6 -9 -8 1 -8 6 0 12 -9 12
-20 0 -11 -6 -20 -12 -20 -9 0 -9 -3 -3 -8 15 -10 18 -105 3 -96 -7 5 -8 2 -2
-7 13 -21 14 -113 0 -121 -8 -6 -8 -8 0 -8 7 0 11 -19 10 -50 l-1 -50 155 0
c85 0 1033 -2 2105 -3 l1951 -2 -1 215 c0 118 3 223 8 233 4 9 4 17 -1 17 -10
0 -9 71 2 89 5 8 5 12 0 9 -5 -4 -9 5 -9 18 0 13 4 24 9 24 5 0 5 6 0 13 -11
15 -11 38 0 56 5 8 5 12 0 9 -5 -4 -9 11 -9 32 0 22 4 36 10 33 6 -3 4 0 -2 8
-16 16 -17 33 -2 23 8 -4 8 -1 2 12 -11 23 -10 104 2 123 4 8 4 12 -1 9 -5 -4
-9 11 -9 32 0 22 4 36 10 33 6 -3 4 0 -2 8 -16 16 -17 33 -2 23 8 -4 8 -1 2
12 -11 23 -10 104 2 123 4 8 4 12 -1 9 -5 -4 -9 11 -9 32 0 22 4 36 10 33 6
-3 4 0 -2 8 -16 16 -17 33 -2 23 8 -4 8 -1 2 12 -11 23 -10 104 2 123 4 8 4
12 -1 9 -5 -4 -9 11 -9 32 0 22 4 36 10 33 6 -3 4 0 -2 8 -16 16 -17 33 -2 23
8 -4 8 -1 2 12 -11 23 -10 104 1 122 4 7 2 12 -4 12 -7 0 -8 6 -1 18 6 11 5
24 -2 37 -12 20 -28 20 -2112 20 l-2100 0 1 -120z"/>
<path d="M17976 8858 c3 -5 10 -6 15 -3 13 9 11 12 -6 12 -8 0 -12 -4 -9 -9z"/>
<path d="M18246 8862 c-3 -5 1 -9 9 -9 8 0 12 4 9 9 -3 4 -7 8 -9 8 -2 0 -6
-4 -9 -8z"/>
<path d="M18246 7502 c-3 -5 1 -9 9 -9 8 0 12 4 9 9 -3 4 -7 8 -9 8 -2 0 -6
-4 -9 -8z"/>
</g>
</svg>
