<?xml version="1.0" encoding="UTF-8" standalone="no"?>
<svg
   xmlns:dc="http://purl.org/dc/elements/1.1/"
   xmlns:cc="http://creativecommons.org/ns#"
   xmlns:rdf="http://www.w3.org/1999/02/22-rdf-syntax-ns#"
   xmlns:svg="http://www.w3.org/2000/svg"
   xmlns="http://www.w3.org/2000/svg"
   xmlns:sodipodi="http://sodipodi.sourceforge.net/DTD/sodipodi-0.dtd"
   xmlns:inkscape="http://www.inkscape.org/namespaces/inkscape"
   sodipodi:docname="logo-caseirinho-panela.svg"
   inkscape:version="1.0 (4035a4f, 2020-05-01)"
   id="svg4188"
   version="1.1"
   viewBox="0 0 51 24.5"
   height="24.5mm"
   width="51mm">
  <defs
     id="defs4182" />
  <sodipodi:namedview
     inkscape:window-maximized="0"
     inkscape:window-y="106"
     inkscape:window-x="885"
     inkscape:window-height="1174"
     inkscape:window-width="1252"
     showgrid="false"
     inkscape:document-rotation="0"
     inkscape:current-layer="layer1"
     inkscape:document-units="mm"
     inkscape:cy="59.274144"
     inkscape:cx="96.92544"
     inkscape:zoom="5.6"
     inkscape:pageshadow="2"
     inkscape:pageopacity="0.0"
     borderopacity="1.0"
     bordercolor="#666666"
     pagecolor="#ffffff"
     id="base" />
  <metadata
     id="metadata4185">
    <rdf:RDF>
      <cc:Work
         rdf:about="">
        <dc:format>image/svg+xml</dc:format>
        <dc:type
           rdf:resource="http://purl.org/dc/dcmitype/StillImage" />
        <dc:title></dc:title>
        <cc:license
           rdf:resource="http://creativecommons.org/licenses/by/4.0/" />
      </cc:Work>
      <cc:License
         rdf:about="http://creativecommons.org/licenses/by/4.0/">
        <cc:permits
           rdf:resource="http://creativecommons.org/ns#Reproduction" />
        <cc:permits
           rdf:resource="http://creativecommons.org/ns#Distribution" />
        <cc:requires
           rdf:resource="http://creativecommons.org/ns#Notice" />
        <cc:requires
           rdf:resource="http://creativecommons.org/ns#Attribution" />
        <cc:permits
           rdf:resource="http://creativecommons.org/ns#DerivativeWorks" />
      </cc:License>
    </rdf:RDF>
  </metadata>
  <g
     id="layer1"
     inkscape:groupmode="layer"
     inkscape:label="Layer 1">
    <g
       id="g4138"
       transform="translate(-29.517617,-18.591553)">
      <path
         sodipodi:nodetypes="ccccc"
         id="path1468"
         d="m 51.437773,20.816629 c -0.615184,-0.421667 -0.22923,-1.072437 0,-1.265 0.832209,-0.466914 1.852738,-0.479034 2.741934,0 0.253335,0.193592 0.67486,0.896855 0,1.265 z"
         style="opacity:1;fill:#b3b3b3;stroke:#000000;stroke-width:0.0169124;stroke-linecap:round;stroke-linejoin:round;stroke-miterlimit:4;stroke-dasharray:none;stroke-opacity:1" />
      <path
         sodipodi:nodetypes="ccccc"
         id="path1472"
         d="m 32.072341,27.796029 c 4.260448,-3.086415 7.76212,-4.655279 10.958051,-5.61266 6.098314,-1.870393 12.387874,-1.827652 18.842503,-0.133635 3.86637,1.242094 7.179543,3.258663 10.156242,5.746295 z"
         style="fill:#b3b3b3;stroke:#000000;stroke-width:0.05;stroke-linecap:round;stroke-linejoin:round;stroke-miterlimit:4;stroke-dasharray:none;stroke-opacity:1" />
      <path
         sodipodi:nodetypes="ccsscssssc"
         id="path1474"
         d="m 72.736794,27.663132 c 1.039434,-1.275669 1.913503,-1.630022 1.913503,-1.630022 0,0 0.968205,-0.588231 1.582775,-0.496094 0.614212,0.09208 1.488281,-0.771831 1.41741,-1.27567 -0.05357,-0.380813 -0.614209,-1.937128 -0.614209,-1.937128 0,0 0.61421,0.519718 0.968561,1.299294 0.354354,0.779576 0.708707,1.464657 0.425224,1.866257 -0.283482,0.4016 -1.01581,0.755952 -1.41741,0.850445 -0.401601,0.0945 -1.039434,0.04725 -1.81901,0.212612 -0.779576,0.165365 -2.456844,1.110306 -2.456844,1.110306 z"
         style="fill:#c8c9cb;fill-opacity:0.996078;stroke:#000000;stroke-width:0.02;stroke-linecap:butt;stroke-linejoin:round;stroke-miterlimit:4;stroke-dasharray:none;stroke-dashoffset:0;stroke-opacity:1" />
      <path
         style="fill:#c8c9cb;fill-opacity:0.996078;stroke:#000000;stroke-width:0.02;stroke-linecap:butt;stroke-linejoin:round;stroke-miterlimit:4;stroke-dasharray:none;stroke-dashoffset:0;stroke-opacity:1"
         d="m 73.863336,27.650355 c 0.369776,-0.453817 1.275491,-0.733271 1.798786,-0.833031 0.959363,-0.150975 2.500627,-0.2467 3.091279,-0.702498 0.625759,-0.581952 0.224015,-2.92446 -0.826823,-4.37035 -0.07533,-0.103652 -0.146863,-0.326003 -0.143523,-0.563446 0.01251,-0.889277 0.335503,-1.332414 1.106184,-2.419022 -0.03559,0.419313 -0.440942,1.406948 -0.48969,1.844615 -0.09547,0.857195 0.294438,0.670895 0.874765,2.022741 1.181785,3.157173 0.253408,4.24245 -1.723214,4.658036 -0.779576,0.165365 -3.687764,0.362952 -3.687764,0.362952 z"
         id="path1474-2"
         sodipodi:nodetypes="cccsscscccc" />
      <path
         sodipodi:nodetypes="ccc"
         id="path3231"
         d="m 33.306667,28.218877 c 1.651046,19.238278 37.468746,17.220472 37.519099,-3e-6 z"
         style="fill:#b3b3b3;stroke:#000000;stroke-width:0.05;stroke-linecap:round;stroke-linejoin:round;stroke-miterlimit:4;stroke-dasharray:none;stroke-opacity:1" />
      <path
         id="path3233"
         d="m 33.738716,28.218876 -2.656274,-0.01241 c 0,0 -0.77501,0.0945 -1.002168,0.897694 -0.227155,0.803198 0.213797,1.358352 0.213797,1.358352 0,0 0.534487,0.767763 1.189238,0.744141 0.654749,-0.02363 1.256049,-0.661458 1.256049,-0.661458 l 1.426742,-0.03772"
         style="fill:#b3b3b3;stroke:#000000;stroke-width:0.05;stroke-linecap:round;stroke-linejoin:round;stroke-miterlimit:4;stroke-dasharray:none;stroke-opacity:1" />
      <path
         sodipodi:nodetypes="ccscscc"
         style="fill:#b3b3b3;stroke:#000000;stroke-width:0.05;stroke-linecap:round;stroke-linejoin:round;stroke-miterlimit:4;stroke-dasharray:none;stroke-opacity:1"
         d="m 70.081911,28.218874 2.878714,-0.01241 c 0,0 0.839911,0.0945 1.086091,0.897694 0.246177,0.803198 -0.2317,1.358352 -0.2317,1.358352 0,0 -0.579246,0.767762 -1.288826,0.74414 -0.709578,-0.02363 -1.180445,-0.655246 -1.180445,-0.655246 l -1.546219,-0.03772"
         id="path3233-8" />
      <path
         sodipodi:nodetypes="ccccccc"
         id="path3250"
         d="m 59.695222,40.327491 c 0.13761,0.415881 0.528667,0.641676 0.412374,1.247984 0,0 -0.422674,0.947066 -0.424254,1.144811 -0.0016,0.197751 1.228899,0.03956 1.228899,0.03956 l 0.618866,-0.02982 c 0.178099,-0.774341 0.555949,-1.439393 0.408694,-2.026755 -0.154189,-0.553696 -0.569689,-1.003582 -0.569689,-1.003582"
         style="fill:#b3b3b3;stroke:#000000;stroke-width:0.05;stroke-linecap:round;stroke-linejoin:round;stroke-miterlimit:4;stroke-dasharray:none;stroke-opacity:1" />
      <path
         id="path3252"
         d="m 52.316578,41.898318 -0.04868,0.76458 c 0,0 0.100224,0.217157 0.35079,0.217157 0.250566,0 1.269532,-0.05011 1.269532,-0.05011 0,0 0.334086,-0.0167 0.384198,-0.150341 0.05012,-0.133633 -0.0094,-0.878867 -0.0094,-0.878867"
         style="fill:#b3b3b3;stroke:#000000;stroke-width:0.05;stroke-linecap:round;stroke-linejoin:round;stroke-miterlimit:4;stroke-dasharray:none;stroke-opacity:1" />
      <path
         id="path3254"
         d="m 44.492488,40.518201 -0.865335,0.742 c 0,0 -0.357911,0.565875 0.09636,0.887396 0.454273,0.321521 0.770887,0.578737 0.770887,0.578737 0,0 0.371677,0.01284 0.454273,-0.01284 0.08259,-0.02572 1.480519,-1.421773 1.480519,-1.421773"
         style="fill:#b3b3b3;stroke:#000000;stroke-width:0.05;stroke-linecap:round;stroke-linejoin:round;stroke-miterlimit:4;stroke-dasharray:none;stroke-opacity:1" />
      <path
         sodipodi:nodetypes="cccc"
         id="path3266"
         d="m 70.825766,28.218874 -1.70385,-0.03341 c 0,0 -4.710624,13.530519 -24.956294,11.191911 0,0 18.742282,5.646072 26.660144,-11.158501 z"
         style="fill:#808183;fill-opacity:0.996078;stroke:#000000;stroke-width:0;stroke-linecap:butt;stroke-linejoin:miter;stroke-miterlimit:4;stroke-dasharray:none;stroke-opacity:1" />
      <path
         sodipodi:nodetypes="cccc"
         id="path3285"
         d="m 33.859708,27.796029 h 1.520094 c 5.626839,-4.060031 10.553509,-5.245087 15.468225,-6.381058 -5.244491,0.61477 -10.603375,1.643114 -16.988319,6.381058 z"
         style="fill:#e6e6e6;fill-opacity:0.996078;stroke:#000000;stroke-width:0;stroke-linecap:butt;stroke-linejoin:miter;stroke-miterlimit:4;stroke-dasharray:none;stroke-opacity:1" />
    </g>
  </g>
</svg>
