<?xml version="1.0" encoding="UTF-8" standalone="no"?>
<svg
   xmlns:dc="http://purl.org/dc/elements/1.1/"
   xmlns:cc="http://creativecommons.org/ns#"
   xmlns:rdf="http://www.w3.org/1999/02/22-rdf-syntax-ns#"
   xmlns:svg="http://www.w3.org/2000/svg"
   xmlns="http://www.w3.org/2000/svg"
   xmlns:sodipodi="http://sodipodi.sourceforge.net/DTD/sodipodi-0.dtd"
   xmlns:inkscape="http://www.inkscape.org/namespaces/inkscape"
   sodipodi:docname="map.svg"
   inkscape:version="1.0 (4035a4f, 2020-05-01)"
   id="svg2155"
   version="1.1"
   viewBox="0 0 89 21"
   height="21mm"
   width="89mm">
  <defs
     id="defs2149">
    <inkscape:path-effect
       effect="bspline"
       id="path-effect3652"
       is_visible="true"
       lpeversion="1"
       weight="33.333333"
       steps="2"
       helper_size="0"
       apply_no_weight="true"
       apply_with_weight="true"
       only_selected="false" />
    <inkscape:path-effect
       effect="bspline"
       id="path-effect3650"
       is_visible="true"
       lpeversion="1"
       weight="33.333333"
       steps="2"
       helper_size="0"
       apply_no_weight="true"
       apply_with_weight="true"
       only_selected="false" />
    <inkscape:path-effect
       only_selected="false"
       apply_with_weight="true"
       apply_no_weight="true"
       helper_size="0"
       steps="2"
       weight="33.333333"
       lpeversion="1"
       is_visible="true"
       id="path-effect3607"
       effect="bspline" />
    <inkscape:path-effect
       only_selected="false"
       apply_with_weight="true"
       apply_no_weight="true"
       helper_size="0"
       steps="2"
       weight="33.333333"
       lpeversion="1"
       is_visible="true"
       id="path-effect3594"
       effect="bspline" />
    <inkscape:path-effect
       only_selected="false"
       apply_with_weight="true"
       apply_no_weight="true"
       helper_size="0"
       steps="2"
       weight="33.333333"
       lpeversion="1"
       is_visible="true"
       id="path-effect3556"
       effect="bspline" />
    <inkscape:path-effect
       only_selected="false"
       apply_with_weight="true"
       apply_no_weight="true"
       helper_size="0"
       steps="2"
       weight="33.333333"
       lpeversion="1"
       is_visible="true"
       id="path-effect3552"
       effect="bspline" />
    <inkscape:path-effect
       lpeversion="1"
       is_visible="true"
       id="path-effect3548"
       effect="spiro" />
    <inkscape:path-effect
       lpeversion="1"
       is_visible="true"
       id="path-effect3544"
       effect="spiro" />
    <inkscape:path-effect
       only_selected="false"
       apply_with_weight="true"
       apply_no_weight="true"
       helper_size="0"
       steps="2"
       weight="33.333333"
       lpeversion="1"
       is_visible="true"
       id="path-effect3160"
       effect="bspline" />
    <inkscape:path-effect
       only_selected="false"
       apply_with_weight="true"
       apply_no_weight="true"
       helper_size="0"
       steps="2"
       weight="33.333333"
       lpeversion="1"
       is_visible="true"
       id="path-effect3080"
       effect="bspline" />
    <inkscape:path-effect
       only_selected="false"
       apply_with_weight="true"
       apply_no_weight="true"
       helper_size="0"
       steps="2"
       weight="33.333333"
       lpeversion="1"
       is_visible="true"
       id="path-effect3076"
       effect="bspline" />
    <inkscape:path-effect
       only_selected="false"
       apply_with_weight="true"
       apply_no_weight="true"
       helper_size="0"
       steps="2"
       weight="33.333333"
       lpeversion="1"
       is_visible="true"
       id="path-effect3072"
       effect="bspline" />
    <inkscape:path-effect
       only_selected="false"
       apply_with_weight="true"
       apply_no_weight="true"
       helper_size="0"
       steps="2"
       weight="33.333333"
       lpeversion="1"
       is_visible="true"
       id="path-effect3068"
       effect="bspline" />
    <inkscape:path-effect
       only_selected="false"
       apply_with_weight="true"
       apply_no_weight="true"
       helper_size="0"
       steps="2"
       weight="33.333333"
       lpeversion="1"
       is_visible="true"
       id="path-effect3064"
       effect="bspline" />
    <inkscape:path-effect
       only_selected="false"
       apply_with_weight="true"
       apply_no_weight="true"
       helper_size="0"
       steps="2"
       weight="33.333333"
       lpeversion="1"
       is_visible="true"
       id="path-effect2748"
       effect="bspline" />
    <inkscape:path-effect
       only_selected="false"
       apply_with_weight="true"
       apply_no_weight="true"
       helper_size="0"
       steps="2"
       weight="33.333333"
       lpeversion="1"
       is_visible="true"
       id="path-effect2744"
       effect="bspline" />
  </defs>
  <sodipodi:namedview
     inkscape:window-maximized="0"
     inkscape:window-y="107"
     inkscape:window-x="257"
     inkscape:window-height="1174"
     inkscape:window-width="1898"
     width="53mm"
     showgrid="false"
     inkscape:document-rotation="0"
     inkscape:current-layer="layer1"
     inkscape:document-units="mm"
     inkscape:cy="64.280631"
     inkscape:cx="176.23692"
     inkscape:zoom="4"
     inkscape:pageshadow="2"
     inkscape:pageopacity="0.0"
     borderopacity="1.0"
     bordercolor="#666666"
     pagecolor="#ffffff"
     id="base" />
  <metadata
     id="metadata2152">
    <rdf:RDF>
      <cc:Work
         rdf:about="">
        <dc:format>image/svg+xml</dc:format>
        <dc:type
           rdf:resource="http://purl.org/dc/dcmitype/StillImage" />
        <dc:title></dc:title>
      </cc:Work>
    </rdf:RDF>
  </metadata>
  <g
     id="layer1"
     inkscape:groupmode="layer"
     inkscape:label="Layer 1">
    <path
       transform="scale(0.26458333)"
       id="path2930"
       d=""
       style="fill:#ffe0b1;fill-opacity:0.996078;stroke:#000000;stroke-width:0.0238619;stroke-linecap:round;stroke-linejoin:round;stroke-miterlimit:4;stroke-dasharray:none;stroke-opacity:0.129032" />
    <path
       transform="scale(0.26458333)"
       id="path3672"
       d=""
       style="fill:#8fff9c;fill-opacity:1;stroke:none;stroke-width:0.000220971;stroke-linecap:round;stroke-linejoin:round;stroke-miterlimit:4;stroke-dasharray:none;stroke-opacity:1" />
    <path
       transform="scale(0.26458333)"
       id="path3674"
       d=""
       style="fill:#8fff9c;fill-opacity:1;stroke:none;stroke-width:0.000220971;stroke-linecap:round;stroke-linejoin:round;stroke-miterlimit:4;stroke-dasharray:none;stroke-opacity:1" />
    <path
       transform="scale(0.26458333)"
       id="path3676"
       d=""
       style="fill:#8fff9c;fill-opacity:1;stroke:none;stroke-width:0.000220971;stroke-linecap:round;stroke-linejoin:round;stroke-miterlimit:4;stroke-dasharray:none;stroke-opacity:1" />
    <path
       transform="scale(0.26458333)"
       id="path3678"
       d=""
       style="fill:#8fff9c;fill-opacity:1;stroke:none;stroke-width:0.000220971;stroke-linecap:round;stroke-linejoin:round;stroke-miterlimit:4;stroke-dasharray:none;stroke-opacity:1" />
    <path
       transform="scale(0.26458333)"
       id="path3682"
       d=""
       style="fill:#8fff9c;fill-opacity:1;stroke:none;stroke-linecap:round;stroke-linejoin:round;stroke-miterlimit:4;stroke-dasharray:none;stroke-opacity:1" />
    <path
       transform="scale(0.26458333)"
       id="path3684"
       d=""
       style="fill:#8fff9c;fill-opacity:1;stroke:none;stroke-width:0.000110485;stroke-linecap:round;stroke-linejoin:round;stroke-miterlimit:4;stroke-dasharray:none;stroke-opacity:1" />
    <path
       transform="scale(0.26458333)"
       id="path3686"
       d=""
       style="fill:#8fff9c;fill-opacity:1;stroke:none;stroke-width:0.0003125;stroke-linecap:round;stroke-linejoin:round;stroke-miterlimit:4;stroke-dasharray:none;stroke-opacity:1" />
    <path
       transform="scale(0.26458333)"
       id="path3688"
       d=""
       style="fill:#008000;fill-opacity:1;stroke:none;stroke-width:0.0003125;stroke-linecap:round;stroke-linejoin:round;stroke-miterlimit:4;stroke-dasharray:none;stroke-opacity:1" />
    <g
       transform="translate(-89.331278,-191.40339)"
       id="g3731">
      <path
         style="fill:none;stroke:none;stroke-width:0.264583px;stroke-linecap:butt;stroke-linejoin:miter;stroke-opacity:1"
         d="m 89.428382,210.94247 14.499378,-9.0738 13.47038,-3.18051 14.59291,1.40317 10.10279,-1.77734 16.93153,1.40316 c 4.76772,4.09183 10.99911,6.92909 17.49279,9.54152 l -3.08697,1.59026 c -4.90804,-1.09135 -12.79838,-2.18271 -19.27013,-3.27406 l -20.29912,2.61925 c -7.17173,-0.55682 -14.34347,-0.94266 -21.5152,-1.96444 h -2.89987 l -7.95127,1.12254 -5.61266,1.30962 z"
         id="path3526"
         sodipodi:nodetypes="ccccccccccccccc" />
      <path
         style="fill:none;stroke:none;stroke-width:0.264583px;stroke-linecap:butt;stroke-linejoin:miter;stroke-opacity:1"
         d="m 93.637877,210.0538 10.921303,-7.83434 12.06722,-2.71278 15.36465,1.21607 10.03263,-1.75395 16.46381,1.1693 14.05503,9.02703 -18.49839,-2.80633 -20.11203,2.78294 -20.55637,-1.82411 h -4.04579 l -3.97563,0.37417 -9.775386,2.29184 z"
         id="path3528" />
      <path
         style="fill:none;stroke:none;stroke-width:0.264583px;stroke-linecap:butt;stroke-linejoin:miter;stroke-opacity:1"
         d="m 101.07465,207.24747 c -0.0915,-0.12036 -0.14984,-0.26562 -0.16707,-0.4158 -0.0172,-0.15019 0.007,-0.30489 0.0686,-0.44284 0.0618,-0.13794 0.1614,-0.25876 0.28498,-0.34582 0.12358,-0.0871 0.27086,-0.14014 0.42157,-0.15193 0.14094,-0.011 0.28187,0.0133 0.42245,0.0282 0.14058,0.0149 0.28645,0.0197 0.41945,-0.0282 0.0889,-0.032 0.16874,-0.0868 0.23613,-0.15313 0.0674,-0.0663 0.1228,-0.14401 0.17036,-0.22573 0.0951,-0.16343 0.15941,-0.34292 0.24832,-0.50981 0.15743,-0.29551 0.39058,-0.54709 0.65882,-0.74749 0.26823,-0.20039 0.57115,-0.35103 0.88466,-0.46859 0.40517,-0.15193 0.83121,-0.25009 1.26285,-0.28063 0.61703,-0.0436 1.23422,0.0505 1.84886,0.12003 0.61464,0.0696 1.24374,0.11398 1.84614,-0.0265 0.63709,-0.1486 1.21028,-0.49669 1.73292,-0.89015 0.52264,-0.39346 1.00689,-0.83704 1.54113,-1.2146 1.55509,-1.09903 3.4768,-1.59119 5.3788,-1.68379 3.53985,-0.17233 7.00232,0.95661 10.52374,1.35639 4.18456,0.47506 8.44351,-0.0894 12.48817,-1.26285 1.04595,-0.30346 2.09089,-0.64949 3.1763,-0.73882 0.54271,-0.0447 1.0935,-0.0238 1.62417,0.0983 0.53067,0.12213 1.04129,0.34775 1.467,0.68731 0.21733,0.17335 0.41348,0.37651 0.65481,0.51449 0.35617,0.20363 0.78541,0.24835 1.19324,0.20367 0.40782,-0.0447 0.80115,-0.17289 1.19214,-0.29717 0.36483,-0.11596 0.73262,-0.22961 1.11195,-0.2811 0.37934,-0.0515 0.77393,-0.0384 1.13311,0.094 0.0844,0.0311 0.16813,0.0698 0.2327,0.13235 0.0323,0.0313 0.0593,0.0684 0.0766,0.10984 0.0173,0.0415 0.0246,0.0875 0.0181,0.13199 -0.0104,0.0713 -0.0558,0.1347 -0.1148,0.17611 -0.059,0.0414 -0.13037,0.0624 -0.20199,0.0703 -0.14323,0.0158 -0.28758,-0.0183 -0.43157,-0.0126 -0.1753,0.007 -0.35148,0.078 -0.46658,0.21041 -0.0576,0.0662 -0.099,0.14674 -0.11662,0.23268 -0.0176,0.0859 -0.0108,0.17712 0.0219,0.25849 0.0477,0.11835 0.14878,0.21107 0.26576,0.26202 0.11698,0.051 0.2486,0.0625 0.37533,0.0477 0.25347,-0.0296 0.48242,-0.15855 0.7153,-0.26289 0.67304,-0.30155 1.41616,-0.40765 2.15102,-0.46998 0.73487,-0.0623 1.4761,-0.0845 2.19879,-0.23161 0.13778,-0.028 0.27562,-0.0607 0.41614,-0.0654 0.14053,-0.005 0.28638,0.021 0.40237,0.10046 0.0658,0.0451 0.12176,0.10953 0.14032,0.18709 0.01,0.0399 0.009,0.082 -8.5e-4,0.12183 -0.01,0.0398 -0.0283,0.0773 -0.0532,0.10989 -0.0498,0.0651 -0.12408,0.10922 -0.20318,0.13077 -0.0943,0.0257 -0.19458,0.0208 -0.29068,0.003 -0.0961,-0.0177 -0.1894,-0.0479 -0.28392,-0.0727 -0.0945,-0.0248 -0.19163,-0.0444 -0.28927,-0.0402 -0.0976,0.004 -0.19667,0.034 -0.27035,0.0982 -0.0721,0.0628 -0.11468,0.15342 -0.14032,0.24556 -0.0663,0.2384 -0.0291,0.49892 0.0765,0.72271 0.10561,0.22379 0.27598,0.41274 0.47097,0.56509 0.39,0.30471 0.86987,0.46543 1.31175,0.68832 0.55728,0.28109 1.05659,0.66286 1.58703,0.99182 0.53043,0.32896 1.11134,0.61075 1.73379,0.6569 0.19442,0.0144 0.38979,0.006 0.58465,0.0117 0.6725,0.0213 1.33531,0.22427 1.91766,0.56127 0.62528,0.36184 1.15229,0.86929 1.74226,1.28623 0.0196,0.0138 0.0394,0.0277 0.0563,0.0446 0.017,0.017 0.0312,0.0374 0.0373,0.0606 0.007,0.0273 0.002,0.057 -0.0108,0.0818 -0.0133,0.0248 -0.0347,0.0449 -0.0594,0.0585 -0.0339,0.0187 -0.0736,0.0255 -0.11214,0.0224 -0.0385,-0.003 -0.0759,-0.0159 -0.11003,-0.0341 -0.0565,-0.0302 -0.10384,-0.0747 -0.15201,-0.11693 -0.13603,-0.11933 -0.28394,-0.22428 -0.43264,-0.3274 -0.22009,-0.15262 -0.44419,-0.30264 -0.68989,-0.40926 -0.62107,-0.26951 -1.32628,-0.24192 -1.98782,-0.38587 -0.20187,-0.0439 -0.40107,-0.10417 -0.60665,-0.12468 -0.20557,-0.0205 -0.42328,0.002 -0.59773,0.11298 -0.0865,0.0549 -0.15875,0.12887 -0.23476,0.1975 -0.076,0.0686 -0.15882,0.13375 -0.25635,0.16498 -0.11969,0.0383 -0.24893,0.0221 -0.37417,0.0117 -0.29926,-0.0248 -0.60023,-0.014 -0.90037,-0.0234 -0.35761,-0.0112 -0.71471,-0.0514 -1.06406,-0.12863 -0.20031,-0.0443 -0.39772,-0.10069 -0.59635,-0.15201 -0.0444,-0.0115 -0.0896,-0.023 -0.12913,-0.0463 -0.0198,-0.0117 -0.0379,-0.0262 -0.0524,-0.0441 -0.0144,-0.0178 -0.025,-0.039 -0.029,-0.0616 -0.004,-0.0218 -0.002,-0.0446 0.007,-0.0651 0.008,-0.0205 0.0223,-0.0387 0.0401,-0.0518"
         id="path3542"
         inkscape:path-effect="#path-effect3544"
         inkscape:original-d="m 101.07465,207.24747 c 0.20295,-0.45187 0.40562,-0.904 0.60804,-1.35639 0.20242,-0.4524 0.56153,2.6e-4 0.8419,0 0.28037,-2.7e-4 0.4368,-0.59219 0.65481,-0.88867 0.21801,-0.29649 1.02925,-0.81046 1.54348,-1.21608 0.51423,-0.40562 0.84216,-0.18682 1.26285,-0.28063 0.42068,-0.0938 2.4636,0.0626 3.695,0.0935 1.2314,0.0309 2.18297,-1.4029 3.27405,-2.10475 1.09109,-0.70184 3.58613,-1.12226 5.3788,-1.68379 1.79267,-0.56153 7.01609,0.90452 10.52374,1.35639 3.50765,0.45187 8.32571,-0.84164 12.48817,-1.26285 4.16246,-0.42122 4.17857,0.0314 6.26747,0.0468 2.08889,0.0153 0.4368,0.34326 0.65481,0.51449 0.218,0.17124 1.59052,-0.0621 2.38538,-0.0935 0.79486,-0.0314 1.49697,-0.12446 2.24506,-0.18709 0.74809,-0.0626 0.21854,0.24972 0.32741,0.37418 0.10887,0.12446 -0.49864,0.15617 -0.74836,0.23386 -0.24971,0.0777 -0.37391,0.46799 -0.56126,0.70158 -0.18736,0.2336 0.90452,0.0314 1.35639,0.0468 0.45187,0.0153 2.90014,-0.46746 4.34981,-0.70159 1.44967,-0.23412 0.54594,0.0237 0.81851,0.0351 0.27258,0.0114 0.0938,0.12499 0.14032,0.18709 0.0465,0.0621 -0.17123,0.24192 -0.25725,0.36249 -0.086,0.12056 -0.75588,-0.008 -1.13422,-0.0117 -0.37834,-0.004 -0.0933,0.16397 -0.14032,0.24556 -0.047,0.0816 1.23973,1.31768 1.8592,1.97612 0.61946,0.65844 2.21414,1.09941 3.32082,1.64872 1.10668,0.54931 0.39003,0.008 0.58465,0.0117 0.19462,0.004 1.27871,0.37444 1.91766,0.56127 0.63896,0.18682 1.16177,0.85775 1.74226,1.28623 0.58049,0.42848 0.0626,0.0704 0.0936,0.10524 0.0309,0.0348 -0.0465,0.0938 -0.0702,0.14032 -0.0237,0.0465 -0.14785,-0.008 -0.22217,-0.0117 -0.0743,-0.004 -0.10107,-0.0777 -0.15201,-0.11693 -0.0509,-0.0392 -0.28816,-0.218 -0.43264,-0.3274 -0.14448,-0.1094 -0.45966,-0.27257 -0.68989,-0.40926 -0.23023,-0.13668 -1.32495,-0.25698 -1.98782,-0.38587 -0.66287,-0.12889 -0.80265,-0.008 -1.20438,-0.0117 -0.40173,-0.004 -0.32714,0.24192 -0.49111,0.36248 -0.16397,0.12057 -0.24918,0.008 -0.37417,0.0117 -0.125,0.004 -0.59998,-0.0153 -0.90037,-0.0234 -0.30038,-0.008 -0.70911,-0.0855 -1.06406,-0.12863 -0.35496,-0.0431 -0.39731,-0.10107 -0.59635,-0.15201 -0.19905,-0.0509 -0.14005,-0.10107 -0.21048,-0.152 -0.0704,-0.0509 0.0314,-0.0777 0.0468,-0.11694" />
      <path
         style="fill:none;stroke:none;stroke-width:0.264583px;stroke-linecap:butt;stroke-linejoin:miter;stroke-opacity:1"
         d="m 158.21858,205.92621 c 0.0827,-0.0154 0.15909,-0.0621 0.21044,-0.12868 0.029,-0.0376 0.0502,-0.0814 0.0606,-0.12777 0.0104,-0.0464 0.0101,-0.0952 -0.002,-0.14117 -0.0157,-0.0591 -0.0505,-0.1121 -0.0943,-0.1548 -0.0438,-0.0427 -0.0963,-0.0756 -0.15127,-0.10244 -0.0922,-0.045 -0.19168,-0.0736 -0.29232,-0.0936 -0.28142,-0.0559 -0.57496,-0.045 -0.8536,0.0234 -0.26606,0.0653 -0.51635,0.18146 -0.77174,0.28063 -0.41581,0.16145 -0.84809,0.27879 -1.28623,0.36249 -0.63137,0.12061 -1.27489,0.17155 -1.91766,0.17539 -0.37832,0.002 -0.75662,-0.0117 -1.13422,-0.0351 -0.79874,-0.0494 -1.59995,-0.14096 -2.39708,-0.0702 -1.71247,0.15202 -3.28677,1.03978 -4.99293,1.25115 -0.46885,0.0581 -0.94331,0.0643 -1.41485,0.0351 -0.0927,-0.006 -0.18688,-0.0132 -0.2733,-0.0471 -0.0432,-0.017 -0.0841,-0.0406 -0.11831,-0.072 -0.0342,-0.0314 -0.0616,-0.0707 -0.0761,-0.11481 -0.0181,-0.0548 -0.0157,-0.11541 0.002,-0.17029 0.0179,-0.0549 0.0508,-0.1042 0.0913,-0.14542 0.0663,-0.0676 0.152,-0.11352 0.24089,-0.14618 0.0889,-0.0327 0.18174,-0.0529 0.2736,-0.076 0.16848,-0.0423 0.33715,-0.0945 0.51086,-0.0953 0.0868,-3.8e-4 0.17443,0.0125 0.255,0.0449 0.0806,0.0324 0.15395,0.0851 0.20466,0.15562 0.0398,0.0554 0.065,0.1203 0.10524,0.17539 0.0716,0.098 0.19199,0.15895 0.3134,0.15715 0.1214,-0.002 0.24046,-0.0668 0.30633,-0.16885 0.0488,-0.0756 0.0682,-0.16724 0.0702,-0.25725 0.004,-0.19708 -0.0696,-0.38801 -0.1637,-0.56126 -0.0908,-0.16731 -0.2073,-0.32934 -0.37418,-0.42095 -0.14359,-0.0788 -0.31487,-0.0987 -0.477,-0.0753 -0.16212,0.0234 -0.31604,0.0879 -0.45844,0.1688 -0.27676,0.15732 -0.51294,0.37589 -0.77174,0.56127 -0.15093,0.10812 -0.31487,0.20707 -0.49774,0.23913 -0.0914,0.016 -0.18663,0.0146 -0.27594,-0.0107 -0.0893,-0.0253 -0.1725,-0.0752 -0.23192,-0.14654 -0.0593,-0.0711 -0.0935,-0.16265 -0.0956,-0.25519 -0.002,-0.0925 0.028,-0.18549 0.0839,-0.25931 0.0385,-0.0508 0.088,-0.092 0.13515,-0.13486 0.0472,-0.0429 0.0933,-0.0889 0.1221,-0.14577 0.0282,-0.0557 0.0384,-0.11956 0.0345,-0.18188 -0.004,-0.0623 -0.0215,-0.12324 -0.0462,-0.1806 -0.0722,-0.16788 -0.21116,-0.30951 -0.38393,-0.3691 -0.0864,-0.0298 -0.18009,-0.039 -0.27028,-0.0243 -0.0902,0.0147 -0.17665,0.0534 -0.24616,0.11277 -0.10671,0.0911 -0.16885,0.22544 -0.19878,0.36249 -0.0576,0.26361 -0.006,0.53707 0,0.80682 0.008,0.34375 -0.0648,0.70284 -0.28063,0.97052 -0.13615,0.16887 -0.32373,0.29333 -0.52808,0.36608 -0.20436,0.0727 -0.42496,0.095 -0.64123,0.0782 -0.17226,-0.0133 -0.34301,-0.0512 -0.5028,-0.11693 -0.0564,-0.0232 -0.11255,-0.0506 -0.15611,-0.0933 -0.0218,-0.0214 -0.0402,-0.0464 -0.0522,-0.0745 -0.012,-0.028 -0.0175,-0.0591 -0.0139,-0.0894 0.004,-0.0328 0.0184,-0.064 0.039,-0.0898 0.0206,-0.0258 0.0473,-0.0465 0.0762,-0.0624 0.0579,-0.0319 0.12403,-0.0448 0.18876,-0.0583 0.0944,-0.0196 0.18881,-0.0412 0.27903,-0.0753 0.0902,-0.0341 0.17658,-0.0811 0.24716,-0.14685 0.0573,-0.0534 0.10467,-0.12143 0.11693,-0.19878 0.009,-0.0539 -5.6e-4,-0.10997 -0.0221,-0.16014 -0.0215,-0.0502 -0.0551,-0.0947 -0.0948,-0.13218 -0.10795,-0.10207 -0.25876,-0.15105 -0.40726,-0.15532 -0.14851,-0.004 -0.29551,0.033 -0.43464,0.0851 -0.53915,0.20198 -0.96609,0.61686 -1.37978,1.01729 -0.54719,0.52966 -1.12519,1.06832 -1.8475,1.30962 -0.56401,0.18842 -1.17571,0.17994 -1.76565,0.10524 -1.09728,-0.13894 -2.15301,-0.49696 -3.20389,-0.8419 -0.28241,-0.0927 -0.56535,-0.18467 -0.85359,-0.25724 -0.35228,-0.0887 -0.7146,-0.14836 -1.07767,-0.13598 -0.36306,0.0124 -0.7282,0.0995 -1.03877,0.28798 -0.15701,0.0953 -0.29832,0.21502 -0.45722,0.3071 -0.0795,0.046 -0.16347,0.0851 -0.25216,0.10895 -0.0887,0.0238 -0.18232,0.032 -0.27284,0.0166 -0.12944,-0.0221 -0.24815,-0.0924 -0.3391,-0.18709 -0.0592,-0.0617 -0.10802,-0.1347 -0.13361,-0.21628 -0.0256,-0.0816 -0.0268,-0.17209 0.005,-0.25144 0.033,-0.0822 0.0997,-0.1483 0.17766,-0.19034 0.078,-0.042 0.16659,-0.0614 0.25498,-0.0669 0.092,-0.006 0.18497,0.003 0.27591,-0.012 0.0455,-0.007 0.0904,-0.0208 0.13034,-0.0437 0.04,-0.0229 0.075,-0.0556 0.0965,-0.0963 0.0228,-0.043 0.0298,-0.0935 0.0231,-0.14168 -0.007,-0.0482 -0.0267,-0.094 -0.0545,-0.13393 -0.0556,-0.0798 -0.14001,-0.13465 -0.22585,-0.18042 -0.27258,-0.14534 -0.58254,-0.21938 -0.89142,-0.21471 -0.30887,0.005 -0.61603,0.0879 -0.88593,0.23811 -0.25132,0.13992 -0.46704,0.33436 -0.68657,0.52021 -0.21954,0.18585 -0.4494,0.3672 -0.71659,0.4737 -0.26861,0.10707 -0.56249,0.13332 -0.85164,0.13617 -0.28915,0.003 -0.57882,-0.0165 -0.86724,0.004 -0.35409,0.0254 -0.70231,0.11096 -1.05694,0.12719 -0.17731,0.008 -0.3565,-0.001 -0.52882,-0.0439 -0.17233,-0.0425 -0.33796,-0.11916 -0.47221,-0.23528 -0.12672,-0.1096 -0.22212,-0.25089 -0.30365,-0.39726 -0.0815,-0.14636 -0.15069,-0.29941 -0.23423,-0.44464 -0.14659,-0.25485 -0.33856,-0.48548 -0.57363,-0.66204 -0.23508,-0.17657 -0.51413,-0.29779 -0.80615,-0.33187 -0.3045,-0.0355 -0.61438,0.0237 -0.9017,0.13066 -0.28731,0.10692 -0.5548,0.26035 -0.81718,0.41891 -0.4487,0.27116 -0.89305,0.56237 -1.39147,0.72497 -0.21257,0.0694 -0.43273,0.11438 -0.65481,0.14032 -0.9838,0.11493 -1.96937,-0.14386 -2.95834,-0.19878 -0.58436,-0.0324 -1.17009,0.006 -1.75396,0.0468 -1.4614,0.10096 -2.92227,0.21091 -4.38489,0.29232 -1.34365,0.0748 -2.68864,0.12547 -4.0341,0.15201"
         id="path3546"
         inkscape:path-effect="#path-effect3548"
         inkscape:original-d="m 158.21858,205.92621 c 0.0704,-0.0426 0.14056,-0.0855 0.21044,-0.12868 0.0699,-0.0431 0.0392,-0.17903 0.0585,-0.26894 0.0192,-0.0899 -0.16344,-0.17123 -0.24556,-0.25724 -0.0821,-0.086 -0.19462,-0.0621 -0.29232,-0.0936 -0.0977,-0.0314 -0.5688,0.0159 -0.8536,0.0234 -0.28479,0.008 -0.51422,0.18735 -0.77174,0.28063 -0.25751,0.0933 -0.85722,0.24192 -1.28623,0.36249 -0.42901,0.12056 -1.27818,0.11719 -1.91766,0.17539 -0.63948,0.0582 -0.75588,-0.0231 -1.13422,-0.0351 -0.37834,-0.012 -1.59779,-0.0465 -2.39708,-0.0702 -0.79929,-0.0237 -3.32835,0.83437 -4.99293,1.25115 -1.66457,0.41679 -0.94297,0.0237 -1.41485,0.0351 -0.47189,0.0114 -0.31155,-0.15564 -0.46773,-0.23386 -0.15617,-0.0782 0.0626,-0.21021 0.0935,-0.31571 0.0309,-0.10551 0.34326,-0.14785 0.51449,-0.22217 0.17124,-0.0743 0.64728,0.0704 0.97052,0.10524 0.32325,0.0348 0.0704,0.11719 0.10524,0.17539 0.0348,0.0582 0.41342,-0.008 0.61973,-0.0117 0.20632,-0.004 0.047,-0.17124 0.0702,-0.25725 0.0231,-0.086 -0.10887,-0.37391 -0.1637,-0.56126 -0.0548,-0.18736 -0.24919,-0.28037 -0.37418,-0.42095 -0.12499,-0.14059 -0.62336,0.0626 -0.93544,0.0935 -0.31208,0.0309 -0.51423,0.37444 -0.77174,0.56127 -0.25752,0.18682 -0.67014,0.0548 -1.0056,0.0819 -0.33547,0.027 -0.008,-0.34273 -0.0117,-0.5145 -0.004,-0.17176 0.17176,-0.18682 0.25725,-0.28063 0.0855,-0.0938 -0.008,-0.24139 -0.0117,-0.36248 -0.004,-0.1211 -0.59998,-0.18683 -0.90037,-0.28064 -0.30038,-0.0938 -0.13226,0.24192 -0.19878,0.36249 -0.0665,0.12056 2.7e-4,0.53814 0,0.80682 -2.6e-4,0.26867 -0.18682,0.64727 -0.28063,0.97052 -0.0938,0.32324 -0.77927,0.29649 -1.16931,0.44433 -0.39003,0.14785 -0.33493,-0.0777 -0.5028,-0.11693 -0.16786,-0.0392 -0.14784,-0.17123 -0.22217,-0.25724 -0.0743,-0.086 0.20295,-0.14005 0.30402,-0.21048 0.10108,-0.0704 0.35106,-0.14784 0.52619,-0.22217 0.17513,-0.0743 0.0782,-0.13225 0.11693,-0.19878 0.0387,-0.0665 -0.0777,-0.19462 -0.11693,-0.29232 -0.0392,-0.0977 -0.561,-0.0465 -0.8419,-0.0702 -0.2809,-0.0237 -0.91959,0.67846 -1.37978,1.01729 -0.46019,0.33884 -1.2314,0.87335 -1.8475,1.30962 -0.6161,0.43628 -1.17683,0.0704 -1.76565,0.10524 -0.58881,0.0348 -2.13566,-0.561 -3.20389,-0.8419 -1.06823,-0.28089 -0.5688,-0.17123 -0.85359,-0.25724 -0.2848,-0.086 -1.4107,0.1016 -2.11644,0.152 -0.70575,0.0504 -0.65455,0.2887 -0.98222,0.43265 -0.32767,0.14395 -0.2258,-0.12446 -0.3391,-0.18709 -0.11329,-0.0626 -0.0855,-0.31155 -0.12862,-0.46772 -0.0431,-0.15617 0.28869,-0.17124 0.43264,-0.25725 0.14395,-0.086 0.33547,-0.10108 0.5028,-0.15201 0.16734,-0.0509 -0.17123,-0.30375 -0.25724,-0.45603 -0.086,-0.15227 -1.18464,0.0159 -1.77735,0.0234 -0.59271,0.008 -0.93517,0.66287 -1.40316,0.99391 -0.46799,0.33104 -1.14566,0.0938 -1.71888,0.14032 -0.57322,0.0465 -1.37172,-0.10108 -2.05797,-0.15201 -0.68626,-0.0509 -0.35832,-0.56101 -0.53788,-0.8419 -0.17956,-0.2809 -0.91959,-0.66234 -1.37978,-0.99391 -0.46019,-0.33157 -1.14566,0.36665 -1.71888,0.54957 -0.57322,0.18293 -0.92738,0.48358 -1.39147,0.72497 -0.46409,0.24139 -0.43628,0.0938 -0.65481,0.14032 -0.21854,0.0465 -1.97196,-0.13226 -2.95834,-0.19878 -0.98638,-0.0665 -1.16904,0.0314 -1.75396,0.0468 -0.58492,0.0153 -2.92299,0.19515 -4.38489,0.29232 -1.46189,0.0972 -2.68914,0.10161 -4.0341,0.15201" />
      <path
         style="fill:none;stroke:#000000;stroke-width:0.265;stroke-linecap:butt;stroke-linejoin:miter;stroke-miterlimit:4;stroke-dasharray:none;stroke-opacity:1"
         d="m 106.62708,206.34192 c 2.2492,-0.16538 4.49816,-0.33074 5.65572,-0.41342 1.15756,-0.0827 1.22371,-0.0827 1.38755,-0.26317 0.16384,-0.18051 0.42566,-0.54154 0.55388,-0.73705 0.12822,-0.19551 0.12269,-0.22596 -0.11144,-0.30733 -0.23413,-0.0814 -0.69714,-0.21365 -0.91782,-0.30182 -0.22068,-0.0882 -0.19863,-0.1323 0.0812,-0.3005 0.27981,-0.1682 0.81724,-0.46035 1.10121,-0.60639 0.28397,-0.14605 0.31977,-0.14605 0.49892,-0.14191 0.17915,0.004 0.50435,0.0124 1.51036,0.22328 1.00601,0.21088 2.69269,0.62428 4.27467,0.87092 1.58198,0.24664 3.05921,0.32657 3.89977,0.54445 0.84055,0.21788 1.0445,0.57341 1.43869,0.80203 0.39419,0.22863 0.97847,0.3306 1.5214,0.38845 0.54294,0.0578 1.04454,0.0716 1.35456,0.0688 0.31003,-0.003 0.42854,-0.0221 0.54279,-0.10886 0.11426,-0.0868 0.2245,-0.24112 0.37898,-0.33073 0.15447,-0.0896 0.35291,-0.11441 0.81046,-0.0758 0.45754,0.0386 1.17411,0.1406 2.2958,0.0496 1.12169,-0.091 2.64853,-0.37486 3.80328,-0.72352 1.15475,-0.34865 1.93746,-0.76206 2.84565,-1.07625 0.90819,-0.31419 1.9417,-0.52916 2.72445,-0.65455 0.78275,-0.12538 1.31466,-0.16121 1.73361,-0.16946 0.41894,-0.008 0.72485,0.0111 0.98256,0.0593 0.25771,0.0483 0.46719,0.12546 0.64494,0.22336 0.17775,0.0979 0.32382,0.21641 0.41191,0.33221 0.0881,0.1158 0.11839,0.2288 0.0949,0.31681 -0.0235,0.088 -0.10066,0.15142 -0.23429,0.23271 -0.13364,0.0813 -0.32381,0.18051 -0.43689,0.27158 -0.11309,0.0911 -0.14889,0.17369 -0.11153,0.27023 0.0374,0.0965 0.14761,0.20677 0.3888,0.35555 0.24118,0.14878 0.61325,0.33619 0.9729,0.43115 0.35964,0.095 0.70691,0.0976 1.16714,0.0314 0.46023,-0.0662 1.03348,-0.20126 1.54198,-0.32253 0.5085,-0.12126 0.95221,-0.22875 1.26782,-0.28936 0.3156,-0.0606 0.50301,-0.0744 0.7056,-0.073 0.20259,0.001 0.42032,0.0179 0.6863,0.0662 0.26598,0.0483 0.58016,0.12818 0.89432,0.16396 0.31417,0.0358 0.62836,0.0275 0.80597,-0.0151 0.17762,-0.0427 0.21897,-0.11986 0.16815,-0.2135 -0.0508,-0.0936 -0.19413,-0.20387 -0.3526,-0.30175 -0.15847,-0.0979 -0.3321,-0.18331 -0.52089,-0.2894 -0.1888,-0.10609 -0.39275,-0.23287 -0.52097,-0.34168 -0.12822,-0.10881 -0.18059,-0.19975 -0.18346,-0.29355 -0.003,-0.0938 0.044,-0.19029 0.15302,-0.23723 0.10903,-0.047 0.2799,-0.0443 0.49214,-0.0154 0.21224,0.0289 0.46579,0.084 0.72345,0.095 0.25765,0.011 0.51948,-0.0221 0.66816,-0.10466 0.14869,-0.0826 0.18452,-0.21486 0.17085,-0.34432 -0.0137,-0.12947 -0.0771,-0.25626 -0.1212,-0.36099 -0.0441,-0.10473 -0.0689,-0.18743 -0.0207,-0.27028 0.0482,-0.0829 0.16949,-0.16554 0.31707,-0.1544 0.14758,0.0111 0.32121,0.11587 0.5279,0.25921 0.2067,0.14333 0.44648,0.32523 0.73586,0.42021 0.28939,0.095 0.62837,0.10324 0.96709,0.1115"
         id="path3550"
         inkscape:path-effect="#path-effect3552"
         inkscape:original-d="m 106.62708,206.34192 c 2.24922,-0.1651 4.49818,-0.33046 6.74688,-0.49609 0.0664,2.7e-4 0.13255,2.7e-4 0.19843,0 0.2621,-0.36079 0.52392,-0.72183 0.78549,-1.08314 -0.005,-0.03 -0.0108,-0.0604 -0.0165,-0.0909 -0.46277,-0.13203 -0.92578,-0.26432 -1.38906,-0.39687 0.0223,-0.0438 0.0444,-0.0879 0.0661,-0.13229 0.53771,-0.29189 1.07514,-0.58403 1.61231,-0.87644 0.0306,2.7e-4 0.0664,2.7e-4 0.0992,0 0.32548,0.009 0.65069,0.0168 0.97565,0.0248 1.68702,0.41369 3.3737,0.82709 5.06015,1.24024 1.47755,0.0802 2.95478,0.16012 4.43177,0.23978 0.20422,0.3558 0.40817,0.71133 0.61185,1.0666 0.58457,0.10224 1.16885,0.20421 1.75287,0.30592 0.50188,0.014 1.00348,0.0278 1.50482,0.0413 0.11877,-0.019 0.23728,-0.0383 0.35553,-0.0579 0.11051,-0.15408 0.22075,-0.30842 0.33073,-0.46302 0.1987,-0.0246 0.39714,-0.0494 0.59531,-0.0744 0.71686,0.10224 1.43343,0.20422 2.14974,0.30593 1.52716,-0.28362 3.054,-0.56749 4.5806,-0.85163 0.783,-0.41316 1.56572,-0.82656 2.34818,-1.24024 1.03381,-0.21471 2.06732,-0.42968 3.10058,-0.64492 0.5322,-0.0356 1.06411,-0.0714 1.59577,-0.10748 0.3062,0.0195 0.61211,0.0388 0.91777,0.0579 0.20973,0.0774 0.41919,0.15461 0.62839,0.23151 0.14634,0.11878 0.29241,0.23729 0.43822,0.35554 0.0306,0.11326 0.0609,0.22626 0.0909,0.339 -0.0769,0.0636 -0.15408,0.12704 -0.23151,0.19016 -0.18991,0.0995 -0.38008,0.19871 -0.57051,0.29766 -0.0356,0.083 -0.0714,0.16563 -0.10749,0.24805 0.11051,0.11051 0.22075,0.22075 0.33073,0.33073 0.37234,0.18768 0.74441,0.37509 1.11621,0.56224 0.34754,0.003 0.6948,0.006 1.0418,0.008 0.57354,-0.13479 1.14679,-0.26983 1.71979,-0.40514 0.444,-0.10723 0.88772,-0.21471 1.33118,-0.32246 0.18769,-0.0135 0.3751,-0.0273 0.56224,-0.0413 0.218,0.0168 0.43573,0.0333 0.65319,0.0496 0.31447,0.0802 0.62865,0.16011 0.94258,0.23977 0.31446,-0.008 0.62865,-0.0163 0.94258,-0.0248 0.0416,-0.0769 0.083,-0.15407 0.12402,-0.23151 -0.14305,-0.10998 -0.28636,-0.22022 -0.42994,-0.33073 -0.17337,-0.0852 -0.34701,-0.17061 -0.5209,-0.25631 -0.20369,-0.12652 -0.40764,-0.2533 -0.61185,-0.38034 -0.0521,-0.0907 -0.10447,-0.18164 -0.1571,-0.27285 0.0471,-0.0962 0.094,-0.19266 0.14056,-0.28939 0.17115,0.003 0.34202,0.006 0.51263,0.008 0.25383,0.0554 0.50739,0.11051 0.76068,0.16537 0.2621,-0.0328 0.52392,-0.0659 0.78548,-0.0992 0.0361,-0.13203 0.0719,-0.26432 0.10749,-0.39687 -0.0631,-0.12652 -0.12652,-0.2533 -0.19017,-0.38034 -0.0246,-0.0824 -0.0494,-0.1651 -0.0744,-0.24805 0.12154,-0.0824 0.24281,-0.1651 0.36381,-0.24805 0.1739,0.105 0.34753,0.20973 0.5209,0.3142 0.24004,0.18216 0.47982,0.36406 0.71933,0.5457 0.33927,0.009 0.67826,0.0168 1.01699,0.0248" />
      <path
         style="fill:none;stroke:none;stroke-width:0.264583px;stroke-linecap:butt;stroke-linejoin:miter;stroke-opacity:1"
         d="m 89.42838,210.94247 c 3.704706,0.19731 7.409134,0.39461 10.88197,0.55896 3.47284,0.16435 6.75798,0.29754 10.64959,0.20933 3.89161,-0.0882 8.41148,-0.39689 12.33329,-0.68641 3.92182,-0.28953 7.24535,-0.55989 10.17786,-0.60396 2.93252,-0.0441 5.4738,0.13808 8.14457,0.27326 2.67078,0.13518 5.4709,0.22337 9.25228,0.28952 3.78138,0.0661 8.54378,0.11024 12.46793,0.0842 3.92415,-0.026 7.00983,-0.12224 9.36905,-0.19941 2.35921,-0.0772 3.99184,-0.13532 4.79334,-0.17173 0.80149,-0.0364 0.77613,-0.0491 0.41643,-0.25165 -0.3597,-0.20257 -1.05146,-0.59393 -1.74355,-0.98547"
         id="path3554"
         inkscape:path-effect="#path-effect3556"
         inkscape:original-d="m 89.42838,210.94247 c 3.704693,0.19756 7.409121,0.39486 11.11329,0.5919 3.24147,0.13256 6.52665,0.26485 9.78958,0.39688 4.52032,-0.30842 9.04019,-0.6171 13.55989,-0.92604 3.32393,-0.27011 6.64746,-0.54047 9.9708,-0.81109 2.54165,0.18243 5.08293,0.3646 7.624,0.5465 2.80049,0.0885 5.60061,0.17665 8.40052,0.26459 4.76286,0.0444 9.52526,0.0884 14.2875,0.13229 3.08607,-0.0959 6.17175,-0.19212 9.25723,-0.28857 1.63295,-0.0579 3.26558,-0.11604 4.89797,-0.17445 -0.03,-0.0135 -0.0548,-0.0273 -0.0827,-0.0413 -0.69152,-0.39111 -1.38328,-0.78246 -2.07532,-1.17409" />
      <path
         style="fill:#c4987b;fill-opacity:1;stroke:none;stroke-width:1.00157;stroke-linecap:round;stroke-linejoin:round;stroke-miterlimit:4;stroke-dasharray:none;stroke-opacity:1"
         d="m 501.3176,786.04333 c -2.04177,-0.53992 -5.6215,-1.57851 -7.95495,-2.30799 -3.71549,-1.16152 -4.59802,-1.31199 -7.10281,-1.21106 -2.51382,0.1013 -3.08752,0.25663 -4.73762,1.28267 -2.06826,1.28607 -3.62455,1.40338 -3.83607,0.28917 -0.15051,-0.79275 0.49281,-1.26697 1.72881,-1.27439 0.49586,-0.003 1.09248,-0.19633 1.32583,-0.42968 0.55212,-0.55211 0.54291,-1.78576 -0.0177,-2.36893 -0.36217,-0.37676 0.26807,-0.41497 3.4919,-0.21169 4.0434,0.25495 4.76729,0.11696 6.26794,-1.1948 0.55628,-0.48625 1.73707,-0.57669 7.77817,-0.59575 5.91878,-0.0187 7.77954,-0.15619 11.01143,-0.8138 5.60981,-1.14145 8.63888,-2.0296 13.43503,-3.93927 5.85148,-2.32987 9.50326,-3.3926 14.67246,-4.26995 5.87539,-0.9972 10.87898,-0.86854 12.81758,0.32958 0.72851,0.45024 1.32456,1.02316 1.32456,1.27314 0,0.24998 -0.6364,0.87566 -1.41421,1.39039 -2.25717,1.49372 -1.80804,2.83222 1.51591,4.51776 3.14247,1.59352 5.91076,1.71521 11.21201,0.49286 8.62089,-1.98779 9.00907,-2.03272 12.44258,-1.44019 5.08683,0.87784 7.35641,0.6204 7.35641,-0.83445 0,-0.80665 -0.71867,-1.43785 -3.24163,-2.84706 -3.55463,-1.98545 -3.52803,-2.65337 0.0852,-2.1394 4.06644,0.57844 6.12433,-0.55758 5.29897,-2.92521 -0.21123,-0.60591 -0.26263,-1.21729 -0.11424,-1.3586 0.14839,-0.14131 1.25654,0.34366 2.46254,1.07772 2.97176,1.80881 6.46932,2.41655 6.46932,1.1241 0,-0.53604 -0.33602,-0.69441 -1.76461,-0.83168 -1.20982,-0.11625 -2.43287,-0.58203 -3.89015,-1.48151 -3.30754,-2.04153 -5.6871,-1.38654 -4.67545,1.28695 0.6733,1.77932 -0.0245,2.09876 -3.97743,1.82089 -2.75722,-0.19382 -3.27588,-0.14163 -3.70258,0.3725 -0.91799,1.10611 -0.0641,2.35648 2.79376,4.09117 l 2.62116,1.59099 -1.33277,0.11146 c -0.73302,0.0613 -2.12304,-0.058 -3.08892,-0.26516 -3.14159,-0.67375 -6.39267,-0.44298 -12.1267,0.86081 -6.8126,1.54903 -8.83355,1.58547 -11.73752,0.21165 -1.19191,-0.56387 -2.2717,-1.19444 -2.39952,-1.40127 -0.12839,-0.20774 0.40636,-0.77928 1.19484,-1.27702 1.12908,-0.71276 1.42725,-1.114 1.42725,-1.92059 0,-1.42054 -1.89068,-3.0035 -4.26879,-3.574 -4.38819,-1.05271 -15.43675,0.52693 -22.5392,3.22249 -7.92567,3.00798 -11.70335,4.21333 -16.14874,5.15258 -4.12441,0.87143 -5.36361,0.97528 -12.07239,1.01172 l -7.47618,0.0406 -1.18125,0.99396 c -1.16775,0.9826 -1.22051,0.99138 -4.61987,0.7686 -4.99162,-0.32712 -6.67594,-0.78635 -9.36718,-2.55396 -3.02842,-1.98907 -3.49177,-2.11593 -11.59863,-3.17538 -8.30382,-1.0852 -11.75438,-1.66957 -17.85444,-3.0237 -11.80551,-2.62067 -11.9196,-2.6235 -15.90991,-0.39489 -3.92692,2.19321 -4.11537,2.88924 -1.08175,3.99535 1.17833,0.42964 2.14241,0.8827 2.14241,1.00679 0,0.64659 -2.25854,2.83253 -3.09675,2.99721 -0.53301,0.10472 -5.74208,0.51816 -11.57571,0.91875 -13.36843,0.918 -13.68472,0.95757 -13.54283,1.69435 0.13286,0.6899 -0.26399,0.70155 15.00253,-0.44043 6.0531,-0.45279 11.32759,-0.99556 11.72109,-1.20615 1.04394,-0.5587 3.33315,-3.81696 3.19308,-4.54474 -0.0761,-0.39566 -0.86122,-0.8862 -2.14993,-1.34336 l -2.02997,-0.72011 2.43058,-1.31282 c 2.92532,-1.58003 3.62309,-1.61056 9.35119,-0.40913 2.36969,0.49703 6.53591,1.36802 9.25828,1.93553 2.72236,0.56752 8.13172,1.43405 12.02081,1.92563 9.12366,1.15323 9.97131,1.36682 12.80173,3.22585 2.28522,1.50094 2.32797,1.55525 1.22408,1.55525 -1.59468,0 -3.49335,0.86355 -5.36305,2.43924 -2.40149,2.02383 -3.57586,2.5105 -6.058,2.5105 -1.21182,0 -3.572,0.17553 -5.24484,0.39006 -4.17066,0.53487 -5.17113,0.11161 -6.75343,-2.85709 -1.94191,-3.64339 -4.68652,-5.28028 -8.07486,-4.81586 -0.86118,0.11804 -2.77202,0.88009 -4.2463,1.69344 -7.08856,3.91072 -7.55196,4.00865 -15.25961,3.2248 -5.25061,-0.53397 -6.03574,-0.52433 -16.79886,0.20622 -6.20995,0.4215 -14.51029,0.86603 -18.44521,0.98785 l -7.15438,0.22148 v -1.11644 c 0,-1.77034 1.03858,-2.53065 3.45686,-2.53065 2.48974,0 3.332,-0.52726 4.48874,-2.80998 2.41837,-4.77243 7.70289,-6.914 15.01047,-6.08305 4.85584,0.55217 8.38224,0.51262 10.50513,-0.11781 2.15045,-0.63861 5.11851,-2.52171 9.23259,-5.85764 3.8389,-3.11281 8.95663,-5.69689 13.69797,-6.91648 2.84124,-0.73084 4.69414,-0.94705 9.43542,-1.10097 7.35714,-0.23886 10.92812,0.1371 24.32893,2.56138 14.49021,2.62135 16.46035,2.82781 26.69328,2.79732 12.54403,-0.0374 22.00652,-1.42314 35.1075,-5.14138 9.14487,-2.59544 10.95196,-2.91628 15.03673,-2.66966 3.91766,0.23653 6.32805,1.11541 8.94886,3.26296 3.19413,2.61736 5.43645,2.85373 11.2532,1.18627 4.00615,-1.14842 6.96733,-1.40129 8.26664,-0.70592 0.99716,0.53366 0.60195,1.20871 -0.57583,0.98356 -2.80727,-0.53665 -4.80445,2.4505 -2.907,4.34794 0.98979,0.9898 2.65349,0.89597 5.71852,-0.32252 2.72411,-1.08295 5.71257,-1.61959 11.21312,-2.01353 l 3.31984,-0.23777 -0.75658,0.75658 c -0.52397,0.52397 -0.75657,1.19678 -0.75657,2.18835 0,2.72023 1.673,4.63499 5.58533,6.39244 1.22462,0.5501 3.73624,1.97816 5.58138,3.17345 4.20141,2.72169 6.85595,3.83228 9.18606,3.84319 2.84175,0.0133 5.80733,0.68444 8.20362,1.85652 1.21918,0.59633 2.16736,1.13355 2.10707,1.19383 -0.0603,0.0603 -2.41012,-0.28753 -5.22187,-0.77292 -5.40578,-0.93318 -6.2067,-0.903 -7.89248,0.29738 -0.9069,0.64577 -1.48256,0.74015 -4.08743,0.6701 -1.66752,-0.0448 -3.92922,-0.25182 -5.026,-0.45995 l -1.99415,-0.37843 0.17295,-1.28941 c 0.23697,-1.76672 -0.7121,-2.59186 -3.22038,-2.79986 -1.52788,-0.12671 -2.61322,0.089 -5.56298,1.10564 -5.47845,1.88815 -7.71188,2.12877 -17.16667,1.84945 -9.48115,-0.2801 -10.19455,-0.19027 -18.27024,2.30065 -3.10032,0.95628 -5.84103,1.7387 -6.09044,1.7387 -0.31657,0 -0.39571,-0.35609 -0.26211,-1.17933 0.27874,-1.7177 -0.98943,-4.03175 -2.57188,-4.69294 -1.65708,-0.69237 -3.02898,-0.28085 -5.90466,1.77119 -2.44834,1.7471 -3.08763,1.93026 -3.78872,1.08551 -0.37131,-0.44741 -0.31778,-0.68009 0.31027,-1.34861 1.62042,-1.72486 0.3666,-4.47466 -2.04029,-4.47466 -2.10474,0 -2.64321,0.87581 -2.87686,4.67908 -0.18671,3.03907 -0.25033,3.24006 -1.33141,4.206 -0.91419,0.81683 -1.46135,1.01336 -2.80913,1.009 -2.37716,-0.008 -2.92221,-0.48055 -1.16184,-1.00797 2.15437,-0.64546 2.77194,-2.25913 1.36592,-3.56903 -1.86885,-1.7411 -4.67006,-0.63789 -9.47928,3.73327 -4.51499,4.10373 -6.59077,5.09684 -10.6066,5.07453 -2.11458,-0.0118 -4.10539,-0.30762 -6.71751,-0.99837 z"
         id="path3560"
         transform="scale(0.26458333)" />
      <path
         style="fill:#c4987b;fill-opacity:0.996078;stroke:none;stroke-width:0.35411;stroke-linecap:round;stroke-linejoin:round;stroke-miterlimit:4;stroke-dasharray:none;stroke-opacity:1"
         d="m 357.08044,792.58589 c 0.28474,-0.26591 9.0295,-6.58499 19.43281,-14.04241 l 18.91511,-13.55894 22.27386,-5.03869 c 12.25063,-2.77128 22.75116,-5.03089 23.33452,-5.02136 0.65082,0.0106 0.18697,0.20685 -1.20045,0.50783 -6.27318,1.36084 -11.29586,3.80532 -16.65399,8.10531 -5.12682,4.11436 -7.48965,5.27768 -11.04937,5.44003 -1.52792,0.0697 -4.5835,-0.0594 -6.79017,-0.28694 -4.39547,-0.45318 -6.88423,-0.19153 -10.28652,1.08143 -2.28044,0.85322 -4.89292,3.09764 -5.87104,5.04389 -1.2342,2.45579 -1.58505,2.69698 -3.92327,2.69698 -1.91896,0 -2.20648,0.1046 -3.30396,1.20208 -0.95703,0.95703 -1.20208,1.4838 -1.20208,2.58407 0,2.69912 0.0741,2.72305 7.63883,2.4674 3.67405,-0.12417 12.08945,-0.57386 18.7009,-0.99932 8.97608,-0.57763 12.82677,-0.69287 15.20279,-0.45497 3.04616,0.30499 2.85753,0.32775 -4.41941,0.53314 -14.01544,0.39559 -17.25438,0.8873 -38.41735,5.83226 -12.6525,2.95639 -19.46573,4.39168 -20.84702,4.39168 -1.75221,0 -1.97628,-0.0706 -1.53419,-0.48347 z"
         id="path3562"
         transform="scale(0.26458333)" />
      <path
         style="fill:#c4987b;fill-opacity:0.996078;stroke:none;stroke-width:0.35411;stroke-linecap:round;stroke-linejoin:round;stroke-miterlimit:4;stroke-dasharray:none;stroke-opacity:1"
         d="m 500.61049,785.66662 c -2.04177,-0.55848 -5.36377,-1.50781 -7.38221,-2.10963 -5.12798,-1.52897 -8.65479,-1.53928 -11.47645,-0.0336 -2.31746,1.23667 -3.76876,1.39216 -3.76876,0.40379 0,-0.48762 0.38718,-0.73814 1.50261,-0.97227 1.41483,-0.29698 1.50901,-0.39284 1.61233,-1.64123 l 0.10973,-1.32582 3.77936,-0.011 c 3.38724,-0.01 3.92608,-0.10141 5.19357,-0.88208 1.34818,-0.83037 1.67874,-0.87112 7.08034,-0.87285 9.64465,-0.003 15.97521,-1.20622 25.83994,-4.91093 9.32778,-3.50306 14.52741,-4.6421 21.13131,-4.62905 3.11614,0.006 4.24269,0.14917 5.43376,0.68982 0.82643,0.37513 1.5026,0.88871 1.50259,1.14128 0,0.25258 -0.55685,0.90353 -1.23743,1.44657 -2.25884,1.80233 -1.22799,3.64579 2.91131,5.20629 2.72783,1.02838 6.33347,0.83438 13.35215,-0.71842 5.15508,-1.14049 5.39717,-1.16167 8.66206,-0.75758 3.67903,0.45535 6.3512,0.52727 7.21893,0.19429 0.32776,-0.12577 0.55925,-0.62898 0.55925,-1.21569 0,-0.84011 -0.31787,-1.18937 -1.97668,-2.17189 -1.08718,-0.64393 -2.39974,-1.51637 -2.91682,-1.93875 l -0.94013,-0.76796 3.40577,0.0609 c 2.94711,0.0527 3.51036,-0.0333 4.18236,-0.6381 0.65524,-0.58973 0.74134,-0.93404 0.55099,-2.20335 l -0.22559,-1.5044 2.93752,1.38842 c 3.69511,1.7465 5.94273,2.03063 5.94273,0.75127 0,-0.51663 -0.34399,-0.73415 -1.45883,-0.9225 -0.80235,-0.13556 -2.61819,-0.79705 -4.03519,-1.46998 -1.73159,-0.82233 -2.96319,-1.18643 -3.75608,-1.11043 l -1.17972,0.11307 v 1.94455 1.94454 l -3.88909,0.17678 -3.88909,0.17677 -0.11393,0.99366 c -0.14416,1.25722 0.31501,1.80555 2.93285,3.5023 l 2.1118,1.36878 -5.11701,-0.22859 c -4.81458,-0.21507 -5.43761,-0.16375 -10.54148,0.86833 -6.67501,1.3498 -9.23951,1.40447 -11.8443,0.25251 -1.05015,-0.46443 -2.00773,-1.00357 -2.12796,-1.1981 -0.12023,-0.19453 0.3367,-0.77724 1.0154,-1.2949 2.18145,-1.66387 1.50301,-3.71067 -1.71412,-5.1714 -3.10881,-1.41155 -13.45567,-0.52303 -20.88794,1.79373 -1.76593,0.55046 -5.99502,1.96362 -9.39797,3.14035 -9.51929,3.29174 -11.43774,3.64276 -21.27424,3.89254 -8.20039,0.20823 -8.3877,0.22961 -9.26825,1.05788 -0.86637,0.81494 -1.04232,0.83866 -4.88871,0.65896 -4.48579,-0.20956 -5.9486,-0.62475 -9.37865,-2.66193 -2.85374,-1.6949 -3.47112,-1.84019 -14.58712,-3.43275 -4.76413,-0.68255 -11.60539,-1.88741 -15.20279,-2.67747 -7.50075,-1.64731 -10.9716,-2.0322 -12.82117,-1.42179 -0.69868,0.23058 -2.23631,1.04359 -3.41697,1.80668 -2.8056,1.81336 -2.84421,2.51749 -0.20209,3.68596 1.06949,0.47299 1.94454,1.01135 1.94454,1.19636 0,0.29958 -2.3131,2.53095 -2.62366,2.53095 -1.12166,0 -23.63957,1.82443 -24.33479,1.97164 -1.01106,0.21408 -1.31562,1.00293 -0.50702,1.31322 0.57251,0.2197 12.90434,-0.59643 20.57118,-1.36141 6.1228,-0.61092 6.18439,-0.63496 8.00671,-3.12554 1.47081,-2.01017 1.33727,-2.5821 -0.82584,-3.53674 l -1.83474,-0.80972 1.72071,-1.0084 c 2.59605,-1.52139 4.53586,-1.52047 11.84826,0.006 7.86616,1.64161 12.62069,2.47465 19.26866,3.37607 8.71576,1.1818 10.79725,1.7835 13.26163,3.83353 l 0.88051,0.73247 -0.94926,0.0118 c -1.46835,0.0182 -2.69709,0.60304 -5.26229,2.5047 -2.71708,2.01426 -3.67345,2.26234 -10.17503,2.63945 -5.19929,0.30158 -5.58869,0.16072 -7.29118,-2.63734 -2.28104,-3.74893 -4.44737,-5.13035 -7.67879,-4.89661 -1.68182,0.12165 -2.86026,0.55765 -6.21889,2.30085 -5.89904,3.06173 -6.1385,3.10701 -13.51302,2.55522 -5.01162,-0.37498 -7.63146,-0.37994 -13.78859,-0.0261 -10.65739,0.61249 -18.45748,1.02664 -24.16273,1.28293 l -4.89408,0.21986 0.24256,-1.17011 c 0.32217,-1.55417 0.93095,-1.96763 3.30956,-2.2477 2.53505,-0.29849 3.2847,-0.78599 4.76343,-3.09762 1.55663,-2.4334 3.77329,-4.30581 6.03016,-5.09367 1.5434,-0.5388 3.06755,-0.63061 10.46846,-0.63061 h 8.66206 l 1.94454,-0.96315 c 1.0695,-0.52974 3.85374,-2.40558 6.18719,-4.16854 4.75081,-3.58931 10.40888,-6.57994 14.84924,-7.84871 2.6276,-0.7508 3.48114,-0.80715 12.02082,-0.79373 l 9.19238,0.0145 8.30851,1.49597 c 19.63341,3.53505 18.50251,3.40795 30.05204,3.37757 14.99313,-0.0394 20.6589,-0.83506 36.43505,-5.11647 6.95273,-1.88687 8.44723,-2.17655 12.06322,-2.33827 5.0949,-0.22786 7.90016,0.48044 10.90239,2.75273 1.06747,0.80793 2.45281,1.68997 3.07854,1.96009 1.68821,0.72878 4.6737,0.59823 8.52096,-0.3726 4.72115,-1.19134 6.73565,-1.41029 8.01902,-0.87153 l 1.06066,0.44526 -1.68661,0.22012 c -2.03511,0.26559 -3.20421,1.29212 -3.20421,2.81344 0,2.6806 2.22887,3.1363 7.14695,1.46123 1.87723,-0.63937 4.47249,-1.18463 6.75948,-1.42014 2.04177,-0.21027 4.41349,-0.45957 5.27048,-0.554 1.492,-0.1644 1.53329,-0.1442 0.97227,0.47571 -0.83705,0.92494 -0.77137,3.7437 0.12087,5.18738 0.78189,1.26512 2.33377,2.38876 5.52193,3.99813 1.16315,0.58716 3.55223,1.94326 5.30907,3.01356 4.42372,2.69502 5.43311,3.07101 9.70199,3.61393 3.72017,0.47314 8.55619,1.93671 7.28581,2.20498 -0.35342,0.0746 -2.12322,-0.11669 -3.93288,-0.42516 -4.36658,-0.74431 -4.8598,-0.71843 -7.00281,0.36752 -1.68379,0.85324 -2.06196,0.90985 -4.67283,0.69947 -1.56243,-0.1259 -3.59649,-0.32551 -4.52015,-0.44359 -1.65345,-0.21137 -1.67947,-0.23445 -1.68479,-1.49496 -0.003,-0.70416 -0.1223,-1.45534 -0.26517,-1.66929 -0.96034,-1.43824 -4.18087,-1.57038 -8.10806,-0.33267 -5.85993,1.84684 -6.75383,1.9482 -17.25398,1.95637 -10.89815,0.008 -11.24843,0.0552 -19.75507,2.63365 -2.28297,0.692 -4.38026,1.25818 -4.66065,1.25818 -0.34828,0 -0.5098,-0.39761 -0.5098,-1.25499 0,-2.34 -1.52163,-4.29163 -3.61035,-4.63058 -1.3123,-0.21296 -2.65513,0.34756 -5.58203,2.33005 -2.30925,1.56412 -3.88589,1.32126 -2.67214,-0.41161 0.77343,-1.10422 0.69743,-2.95732 -0.15629,-3.81104 -0.71993,-0.71993 -2.92715,-0.97072 -3.77858,-0.42933 -0.66397,0.42218 -1.09938,1.90311 -1.37151,4.66474 -0.3609,3.66264 -2.0067,5.20094 -4.92618,4.60446 l -1.06066,-0.2167 0.88388,-0.28754 c 3.20939,-1.04406 2.64319,-4.66211 -0.71581,-4.57404 -1.78744,0.0469 -3.86729,1.29682 -7.84979,4.71757 -4.61372,3.96293 -5.61972,4.40817 -10.17273,4.50223 -3.14474,0.065 -4.27988,-0.0785 -7.42462,-0.9387 z"
         id="path3564"
         transform="scale(0.26458333)" />
      <path
         style="fill:#ecdac6;fill-opacity:0.996078;stroke:none;stroke-width:0.35411;stroke-linecap:round;stroke-linejoin:round;stroke-miterlimit:4;stroke-dasharray:none;stroke-opacity:1"
         d="m 357.8419,792.81928 c -0.53251,-0.20304 0.64302,-1.07967 22.06435,-16.45422 l 15.59059,-11.18971 4.03162,-0.92991 c 11.93415,-2.75267 35.45558,-7.92899 35.55913,-7.82545 0.066,0.066 -0.99757,0.55837 -2.36341,1.09424 -2.75907,1.08248 -6.14887,3.19746 -10.74326,6.70297 -1.67972,1.28162 -3.88644,2.76897 -4.90381,3.30521 l -1.84976,0.97499 -8.66206,0.009 c -7.9643,0.009 -8.82476,0.0702 -10.68192,0.76414 -2.96503,1.10788 -5.05889,2.77907 -6.80756,5.43339 -1.6144,2.4505 -2.24268,2.79221 -5.15697,2.80476 -0.55369,0.002 -1.33998,0.45483 -2.03293,1.16978 -0.9757,1.00666 -1.13002,1.41615 -1.13002,2.99846 0,1.69237 0.0725,1.85077 0.94678,2.07022 0.84692,0.21256 9.21629,0.0561 20.08965,-0.37564 2.139,-0.0849 3.41179,-0.0793 2.82843,0.0125 -6.62125,1.04187 -11.73482,2.07595 -24.21841,4.89748 -12.49149,2.82332 -17.20351,3.83376 -21.38998,4.58684 -0.38891,0.07 -0.91562,0.0477 -1.17046,-0.0495 z"
         id="path3566"
         transform="scale(0.26458333)" />
      <path
         style="fill:#ecdac6;fill-opacity:0.996078;stroke:none;stroke-width:0.35411;stroke-linecap:round;stroke-linejoin:round;stroke-miterlimit:4;stroke-dasharray:none;stroke-opacity:1"
         d="m 439.79931,783.90876 c -8.30165,-0.77355 -9.69608,-0.97685 -7.91757,-1.1543 2.19092,-0.21861 3.12987,-0.60563 8.79302,-3.62438 2.8032,-1.49425 3.36878,-1.6729 4.84646,-1.53092 2.0895,0.20078 3.82337,1.46487 5.11144,3.72654 0.52229,0.91706 1.35109,2.10492 1.84179,2.63967 l 0.89218,0.97227 -1.74553,-0.045 c -0.96003,-0.0247 -6.27984,-0.4675 -11.82179,-0.9839 z"
         id="path3568"
         transform="scale(0.26458333)" />
      <path
         style="fill:#ecdac6;fill-opacity:0.996078;stroke:none;stroke-width:0.35411;stroke-linecap:round;stroke-linejoin:round;stroke-miterlimit:4;stroke-dasharray:none;stroke-opacity:1"
         d="m 483.1096,787.74801 c -12.44508,-1.13866 -23.34336,-2.09897 -24.21841,-2.13402 l -1.59099,-0.0637 1.76777,-0.27535 c 0.97227,-0.15143 3.04056,-0.29277 4.59619,-0.31407 3.24823,-0.0445 4.8135,-0.62194 7.24785,-2.67381 1.99402,-1.68072 3.44789,-2.30059 5.38033,-2.29394 1.56105,0.005 3.17227,0.61478 3.24206,1.22623 0.0218,0.19115 -0.57353,0.44723 -1.32299,0.56905 -0.74945,0.12182 -1.50274,0.44271 -1.67396,0.7131 -0.56324,0.88944 -0.33619,2.2997 0.49614,3.08163 1.15474,1.08482 2.84091,0.98976 4.80762,-0.27104 3.25338,-2.08564 5.57861,-2.0652 12.31178,0.10821 7.49217,2.41842 9.52359,2.83649 13.88212,2.85699 3.94699,0.0186 4.1288,-0.015 6.21826,-1.14863 1.18381,-0.64227 3.603,-2.4902 5.37597,-4.10651 3.47311,-3.16623 5.20136,-4.20326 6.71424,-4.02883 1.49685,0.17258 1.16087,1.07894 -0.6308,1.7017 -1.39919,0.48633 -1.59099,0.67824 -1.59099,1.59188 0,1.34638 1.12216,1.93193 3.71231,1.93712 2.16915,0.004 3.81394,-0.77828 4.80068,-2.28424 0.38757,-0.5915 0.67546,-2.02744 0.82203,-4.10016 0.23939,-3.38535 0.64506,-4.12769 1.89122,-3.46077 1.00857,0.53977 1.07526,1.1499 0.2741,2.50775 -0.57708,0.97809 -0.66005,1.4372 -0.38869,2.15092 0.43579,1.14623 1.60437,1.78362 2.82316,1.53986 0.89107,-0.17821 0.93601,-0.12277 0.80564,0.99399 -0.11328,0.97027 0.0301,1.29294 0.79823,1.79623 0.8002,0.52431 1.48631,0.58248 4.71963,0.40013 3.83505,-0.21628 5.5639,-0.61544 14.03637,-3.2407 4.95154,-1.53427 8.33584,-1.80191 17.06158,-1.34927 l 5.39432,0.27982 -36.86057,5.07248 c -20.27331,2.78986 -37.17877,5.12103 -37.56768,5.18038 -0.38891,0.0593 -10.88944,-0.82374 -23.33452,-1.96241 z"
         id="path3570"
         transform="scale(0.26458333)" />
      <path
         style="fill:#ecdac6;fill-opacity:0.996078;stroke:none;stroke-width:0.35411;stroke-linecap:round;stroke-linejoin:round;stroke-miterlimit:4;stroke-dasharray:none;stroke-opacity:1"
         d="m 545.72549,780.10723 c -0.63659,-0.87305 -0.78714,-0.90871 -3.0052,-0.7119 l -2.33504,0.20719 1.06066,-0.86694 c 2.82948,-2.31271 4.61458,-2.3201 5.7097,-0.0236 1.00184,2.10088 -0.11857,3.19399 -1.43012,1.39527 z"
         id="path3572"
         transform="scale(0.26458333)" />
      <path
         style="fill:#ecdac6;fill-opacity:0.996078;stroke:none;stroke-width:0.35411;stroke-linecap:round;stroke-linejoin:round;stroke-miterlimit:4;stroke-dasharray:none;stroke-opacity:1"
         d="m 614.98501,784.22085 c -17.50089,-2.68721 -31.89935,-4.91231 -31.99658,-4.94468 -0.0972,-0.0324 1.04882,-0.28054 2.54677,-0.5515 1.49795,-0.27096 4.10877,-0.97263 5.80182,-1.55926 3.0429,-1.05435 4.51036,-1.25871 6.05871,-0.84377 0.90175,0.24166 1.06431,1.11041 0.26517,1.41708 -0.6439,0.24708 -0.69636,1.32194 -0.0884,1.81094 0.91078,0.73254 5.6183,1.49889 9.20738,1.49889 3.21126,0 3.756,-0.0883 4.30787,-0.69808 1.01377,-1.12021 1.67626,-1.15423 6.62843,-0.34043 4.9062,0.80624 6.02243,1.21944 8.93495,3.3075 1.91628,1.37382 2.68648,1.54763 3.34453,0.75472 0.64565,-0.77796 0.15309,-1.34415 -3.70789,-4.26211 -4.27993,-3.2346 -6.26562,-4.03167 -11.10856,-4.45907 -4.21918,-0.37234 -5.62724,-0.91086 -10.31867,-3.94642 -1.67936,-1.08662 -4.24737,-2.54227 -5.7067,-3.23477 -3.36465,-1.59667 -4.93501,-3.27073 -4.78262,-5.09846 l 0.10769,-1.29154 2.02091,0.10726 c 2.65047,0.14067 3.53482,-0.33069 3.39142,-1.80767 -0.16202,-1.6689 -1.4662,-2.18557 -4.28931,-1.69928 -1.20102,0.20689 -4.09287,0.54431 -6.42633,0.74984 -5.34934,0.47116 -7.59705,0.91206 -10.20138,2.00107 -2.37843,0.99455 -3.87147,0.98171 -4.06456,-0.035 -0.18212,-0.95888 0.88288,-1.61436 2.62297,-1.61436 2.59871,0 3.15665,-2.12231 0.8596,-3.26982 -1.52734,-0.76299 -2.20461,-0.77203 10.07627,0.13461 l 10.25305,0.75693 23.15774,14.85893 c 28.61676,18.36165 26.91325,17.22744 25.80468,17.18105 -0.48354,-0.0202 -15.19808,-2.23542 -32.69897,-4.92264 z"
         id="path3574"
         transform="scale(0.26458333)" />
      <path
         style="fill:#ecdac6;fill-opacity:0.996078;stroke:none;stroke-width:0.35411;stroke-linecap:round;stroke-linejoin:round;stroke-miterlimit:4;stroke-dasharray:none;stroke-opacity:1"
         d="m 560.49874,756.78376 c -0.75634,-0.51165 -1.82489,-1.30715 -2.37456,-1.76777 l -0.9994,-0.8375 0.9994,0.0237 c 2.2879,0.0542 17.1607,1.30179 16.02467,1.34426 -0.681,0.0255 -2.90805,0.52359 -4.949,1.10696 -4.72577,1.35076 -6.85005,1.38259 -8.70111,0.13039 z"
         id="path3576"
         transform="scale(0.26458333)" />
      <path
         style="fill:#ecdac6;fill-opacity:0.996078;stroke:none;stroke-width:0.35411;stroke-linecap:round;stroke-linejoin:round;stroke-miterlimit:4;stroke-dasharray:none;stroke-opacity:1"
         d="m 488.4129,759.82263 c -3.66773,-0.41298 -14.36449,-2.18087 -14.19869,-2.34668 0.0702,-0.0702 5.04127,0.2728 11.04674,0.76229 6.00547,0.4895 11.79658,0.8901 12.86913,0.89022 1.07254,1.2e-4 10.18731,-1.4396 20.25503,-3.19937 12.39483,-2.16654 18.95857,-3.16544 20.32932,-3.09381 l 2.02437,0.10578 -3.53553,1.01439 c -16.02758,4.59854 -23.78975,5.87125 -36.94633,6.05781 -4.95859,0.0703 -10.28841,-0.0155 -11.84404,-0.19063 z"
         id="path3578"
         transform="scale(0.26458333)" />
      <path
         style="fill:#8a675e;fill-opacity:0.996078;stroke:none;stroke-width:0.35411;stroke-linecap:round;stroke-linejoin:round;stroke-miterlimit:4;stroke-dasharray:none;stroke-opacity:1"
         d="m 341.01916,796.27301 c 0.383,-0.35345 50.93365,-31.9381 51.93432,-32.44918 0.38891,-0.19863 12.00431,-3.02434 25.81199,-6.27934 l 25.10488,-5.9182 27.5237,2.65969 27.52371,2.6597 19.12017,-3.36442 19.12016,-3.36442 30.78174,2.51863 c 16.92995,1.38525 31.25902,2.59547 31.84239,2.68938 0.96798,0.15583 29.35943,18.7968 29.04386,19.11237 -0.0743,0.0743 -25.441,-16.15189 -26.97034,-17.10472 l -2.78063,-1.73242 -21.56676,-1.48628 c -11.86171,-0.81746 -23.15774,-1.63184 -25.10229,-1.80974 -1.94454,-0.1779 -6.31976,-0.492 -9.72272,-0.698 l -6.18718,-0.37453 -18.80707,3.30849 -18.80707,3.30849 -29.09942,-2.29936 -29.09941,-2.29935 -22.45064,5.0239 c -12.34785,2.76314 -22.86224,5.21676 -23.3653,5.45248 -0.50307,0.23572 -10.3268,7.19029 -21.83052,15.4546 l -20.91586,15.02602 4.24681,0.0993 4.24681,0.0993 18.82115,-4.41665 c 18.10422,-4.24842 19.11743,-4.44538 26.59932,-5.17073 13.50839,-1.30961 19.90205,-1.02178 62.2254,2.80123 19.63989,1.77404 36.56069,3.22626 37.60177,3.22715 1.04109,10e-4 16.79189,-2.06134 35.00179,-4.58274 18.20989,-2.52139 35.09764,-4.83945 37.52832,-5.15125 l 4.41941,-0.5669 34.64748,5.29548 c 33.69393,5.14975 35.14648,5.32599 35.17391,4.26776 0.003,-0.11491 -5.40612,-3.67922 -12.02021,-7.92069 -6.61408,-4.24147 -11.9721,-7.76526 -11.9067,-7.83066 0.0654,-0.0654 3.28931,1.46071 7.16425,3.39136 6.69619,3.33631 18.20212,8.49869 25.69508,11.52863 1.89582,0.76662 3.44703,1.50213 3.44715,1.63448 1.1e-4,0.13235 -2.19151,1.35273 -4.87027,2.71196 l -4.87047,2.47131 -3.87998,-0.83543 c -5.60595,-1.20706 -17.69628,-3.31411 -34.28556,-5.97514 -7.97263,-1.27886 -18.97512,-3.04816 -24.44999,-3.93177 l -9.9543,-1.60655 -38.48251,4.95797 -38.48252,4.95796 -18.73833,-1.40183 c -29.1145,-2.17807 -43.93419,-3.56553 -56.72998,-5.31122 -9.29585,-1.26821 -14.27316,-1.04395 -31.90098,1.43735 -12.95653,1.82377 -16.68005,2.49035 -25.56637,4.57686 l -10.40115,2.44219 -8.94177,0.37476 c -4.91797,0.20612 -9.79969,0.44432 -10.84828,0.52933 -1.04858,0.085 -1.76453,0.0235 -1.59099,-0.13664 z"
         id="path3580"
         transform="scale(0.26458333)"
         sodipodi:nodetypes="ssscccccsssscssscccccssscccsssssscsssssssscssscccsssscssss" />
      <path
         style="fill:#dedddb;fill-opacity:0.996078;stroke:none;stroke-width:0.35411;stroke-linecap:round;stroke-linejoin:round;stroke-miterlimit:4;stroke-dasharray:none;stroke-opacity:1"
         d="m 391.18572,799.23447 c -0.77782,-0.0629 -9.28674,-0.47496 -18.90872,-0.91563 -15.78156,-0.72275 -20.69762,-1.22911 -12.86539,-1.32515 2.23617,-0.0274 5.21825,-0.58703 13.43502,-2.52122 8.98438,-2.11487 12.77761,-2.80065 25.41015,-4.59388 13.47295,-1.91254 15.4107,-2.10812 20.9069,-2.11022 3.99591,-0.002 7.84657,0.23296 11.31371,0.68892 13.72699,1.80525 28.08946,3.15171 53.69287,5.03364 l 15.9099,1.16943 -4.77297,0.25409 c -5.76765,0.30705 -16.57997,1.03816 -32.70369,2.21139 -25.10188,1.82651 -29.90038,2.02987 -50.20458,2.12768 -10.88944,0.0525 -20.43539,0.0439 -21.2132,-0.019 z"
         id="path3582"
         transform="scale(0.26458333)" />
      <path
         style="fill:#dedddb;fill-opacity:0.996078;stroke:none;stroke-width:0.35411;stroke-linecap:round;stroke-linejoin:round;stroke-miterlimit:4;stroke-dasharray:none;stroke-opacity:1"
         d="m 567.96241,796.71923 c -9.68931,-0.18033 -29.03657,-0.87122 -38.18376,-1.36355 -5.25027,-0.28258 -11.05739,-0.52604 -12.9047,-0.54101 -1.84732,-0.015 -3.63293,-0.13597 -3.96803,-0.26886 -0.3351,-0.1329 15.25661,-2.27926 34.64823,-4.7697 l 35.2575,-4.52808 23.33453,3.73545 c 24.85801,3.97934 41.41919,6.82421 42.19133,7.2476 0.85699,0.46992 -17.72648,0.72704 -46.9643,0.64981 -15.84803,-0.0419 -30.88289,-0.11461 -33.4108,-0.16166 z"
         id="path3584"
         transform="scale(0.26458333)" />
      <path
         style="fill:#dedddb;fill-opacity:0.996078;stroke:none;stroke-width:0.35411;stroke-linecap:round;stroke-linejoin:round;stroke-miterlimit:4;stroke-dasharray:none;stroke-opacity:1"
         d="m 662.47437,794.15852 3.29519,-1.71694 2.63356,1.46294 c 2.485,1.38041 2.57834,1.47554 1.65456,1.68628 -0.53845,0.12283 -3.20639,0.23713 -5.92875,0.254 l -4.94974,0.0307 z"
         id="path3586"
         transform="scale(0.26458333)" />
      <path
         style="fill:#c4987b;fill-opacity:1;stroke:none;stroke-width:0.0885275;stroke-linecap:round;stroke-linejoin:round;stroke-miterlimit:4;stroke-dasharray:none;stroke-opacity:1"
         d="m 541.35389,782.58705 c -0.89162,-0.0699 -1.40673,-0.25754 -1.42469,-0.51891 -0.0469,-0.68265 0.43455,-0.98159 2.30562,-1.4316 1.65147,-0.39719 2.3065,-0.28974 2.7488,0.45095 0.36589,0.61273 0.68979,0.93859 1.10102,1.1077 0.21731,0.0894 0.39526,0.18648 0.39544,0.2158 9.3e-4,0.14983 -3.79734,0.28028 -5.12619,0.17606 z"
         id="path3588"
         transform="scale(0.26458333)" />
      <path
         style="fill:#0000ff;fill-opacity:1;stroke:none;stroke-width:0.125197;stroke-linecap:round;stroke-linejoin:round;stroke-miterlimit:4;stroke-dasharray:none;stroke-opacity:1"
         d="m 403.19156,780.24274 c -0.0249,-0.045 -0.0815,-0.23392 -0.12594,-0.41977 -0.0733,-0.30672 -0.0431,-0.34393 0.32647,-0.40316 0.22394,-0.0359 5.55404,-0.43464 11.84467,-0.88611 12.20954,-0.87628 13.21269,-0.96527 13.67509,-1.21321 0.43227,-0.23179 2.57491,-2.98627 2.57491,-3.3102 0,-0.0654 -0.9001,-0.41256 -2.00021,-0.77155 -3.81855,-1.24607 -3.68518,-1.52537 2.18713,-4.58035 l 1.62443,-0.84509 1.43807,0.0753 c 1.80865,0.0947 3.02751,0.31741 9.68808,1.77035 8.67976,1.8934 11.32256,2.35008 18.4375,3.186 8.34474,0.9804 9.59433,1.31772 12.19788,3.29267 1.85126,1.4043 3.00904,1.84008 6.05212,2.278 1.5053,0.21662 6.73389,0.40167 7.30429,0.2585 0.18195,-0.0457 0.67087,-0.39565 1.08649,-0.77774 1.26051,-1.15882 1.7463,-1.25644 4.91688,-0.98804 6.35835,0.53824 12.60859,-0.10023 20.14808,-2.05816 2.65802,-0.69026 4.45911,-1.31347 8.48165,-2.93479 3.9731,-1.60139 5.82791,-2.23044 8.65132,-2.93407 6.6543,-1.65832 13.45711,-2.30067 16.66129,-1.57321 2.0338,0.46174 3.86341,1.68448 4.3236,2.88947 0.35337,0.92527 0,1.43392 -1.67803,2.4138 -1.08496,0.63365 -1.33617,0.90588 -1.15255,1.24899 0.31771,0.59365 2.63958,1.89544 4.31948,2.4218 2.43366,0.76253 3.79933,0.6243 11.4375,-1.1577 2.02812,-0.47317 4.19368,-0.92725 4.81236,-1.00906 1.58282,-0.20933 3.67852,-0.0852 5.56264,0.32959 1.30127,0.28645 1.87941,0.34579 3.45802,0.35492 1.04255,0.006 1.93845,-0.0318 1.99089,-0.0841 0.1651,-0.16457 -0.5462,-0.78242 -1.54715,-1.34386 -2.98213,-1.67272 -3.84764,-2.2896 -4.21845,-3.00669 -0.23348,-0.45147 -0.23178,-0.78559 0.006,-1.24599 0.40602,-0.78516 1.40226,-0.91866 4.06541,-0.54481 1.56555,0.21977 2.82259,0.17652 3.53628,-0.12168 0.64547,-0.2697 0.70797,-0.6615 0.29256,-1.83426 -0.42958,-1.2128 -0.42538,-1.54788 0.0251,-1.99837 0.82718,-0.82718 1.824,-0.64318 3.86702,0.71379 1.80741,1.20048 2.72313,1.53382 4.51982,1.64526 l 1.31673,0.0817 0.0392,0.40625 0.0392,0.40625 -0.91416,-9.5e-4 c -2.07059,-0.002 -3.26696,-0.37941 -5.16029,-1.62726 -1.66762,-1.09909 -1.96171,-1.24679 -2.48237,-1.24679 -0.78485,0 -0.84638,0.29321 -0.34686,1.65312 0.33563,0.91379 0.33146,1.33135 -0.0186,1.85964 -0.68897,1.03979 -2.25792,1.30063 -5.25556,0.87374 -1.01721,-0.14486 -2.00159,-0.22708 -2.1875,-0.18271 -1.26965,0.30304 -0.66775,1.18063 1.73892,2.53539 2.94487,1.65771 3.61057,2.19156 3.61057,2.89541 0,0.47267 -0.35217,0.8157 -1.02467,0.99809 -0.86738,0.23524 -3.52251,0.0758 -5.35033,-0.32122 -1.11197,-0.24155 -2.0671,-0.35717 -3.3125,-0.40099 -1.96658,-0.0692 -2.4281,0.008 -8.3125,1.38759 -4.34308,1.01833 -5.69452,1.24504 -7.4375,1.24764 -1.16929,0.002 -1.72048,-0.0588 -2.5,-0.27459 -1.31284,-0.36344 -3.87254,-1.63488 -4.62522,-2.29741 -1.34551,-1.18437 -1.18162,-1.86134 0.74057,-3.05908 0.68218,-0.42508 1.29198,-0.86516 1.3551,-0.97794 0.43128,-0.77067 -1.47155,-2.24693 -3.54398,-2.74951 -3.03556,-0.73615 -10.0761,-0.0716 -16.59829,1.56676 -2.71291,0.68147 -4.56856,1.31228 -8.26568,2.80982 -5.38941,2.18301 -8.16716,3.0408 -12.9375,3.99518 -2.82743,0.56567 -5.39834,0.96399 -7.6695,1.18825 -1.66044,0.16395 -6.23016,0.16126 -7.768,-0.005 -0.65313,-0.0704 -1.77813,-0.13744 -2.5,-0.1489 -1.50856,-0.024 -1.67237,0.0364 -2.76774,1.01933 -0.38789,0.34808 -0.85561,0.69004 -1.03939,0.75992 -0.49302,0.18744 -4.62411,0.15184 -6.56787,-0.0566 -2.09083,-0.22421 -3.45795,-0.48192 -4.57866,-0.8631 -1.21386,-0.41285 -1.69284,-0.67931 -3.04634,-1.69472 -2.52659,-1.89545 -3.49336,-2.14799 -12.2374,-3.19671 -7.09806,-0.8513 -9.50388,-1.27123 -18.30252,-3.1946 -6.09914,-1.33326 -7.60357,-1.6075 -9.33508,-1.70165 l -1.3125,-0.0714 -1.25,0.65415 c -1.9108,0.99996 -4.1875,2.30319 -4.1875,2.397 0,0.0462 0.80156,0.3494 1.78125,0.67389 2.12158,0.70272 2.43828,0.85212 2.61134,1.23193 0.17243,0.37845 -0.0243,0.75619 -1.27567,2.44882 -1.25123,1.69249 -1.57803,1.99396 -2.39091,2.2056 -0.37663,0.0981 -5.82499,0.54893 -12.60101,1.04278 -6.56563,0.47853 -12.14843,0.89429 -12.40623,0.92393 -0.2578,0.0296 -0.48908,0.0171 -0.51397,-0.028 z"
         id="path3590"
         transform="scale(0.26458333)" />
      <g
         id="g3614"
         transform="translate(-8.99117,22.351086)">
        <g
           id="g3603">
          <path
             style="fill:#ff0000;stroke:none;stroke-width:0.0132292;stroke-linecap:butt;stroke-linejoin:miter;stroke-miterlimit:4;stroke-dasharray:none;stroke-opacity:1"
             d="m 165.65932,179.84531 c -0.011,-0.37469 -0.0331,-1.12434 -0.0531,-1.53279 -0.02,-0.40844 -0.038,-0.47565 -0.24048,-0.64997 -0.20246,-0.17432 -0.58953,-0.45561 -1.05598,-1.01133 -0.46644,-0.55573 -1.01207,-1.38587 -1.32142,-2.08327 -0.30934,-0.6974 -0.38215,-1.26184 -0.40105,-1.75265 -0.0189,-0.49081 0.0162,-0.90785 0.14672,-1.3094 0.13056,-0.40154 0.3566,-0.7874 0.61065,-1.10122 0.25404,-0.31382 0.536,-0.55547 0.77774,-0.70749 0.24173,-0.15203 0.44307,-0.21439 0.64122,-0.25531 0.19815,-0.0409 0.39303,-0.0604 0.62106,-0.0682 0.22803,-0.008 0.48917,-0.004 0.73911,0.0176 0.24994,0.0215 0.48864,0.0604 0.73809,0.19891 0.24945,0.13848 0.50964,0.37623 0.70206,0.59843 0.19242,0.2222 0.31714,0.42877 0.44573,0.70941 0.12859,0.28064 0.26111,0.63532 0.34876,1.06015 0.0877,0.42484 0.13053,0.91983 0.10516,1.36412 -0.0254,0.4443 -0.11892,0.83796 -0.23781,1.20041 -0.11888,0.36246 -0.26309,0.69375 -0.44628,1.01918 -0.18318,0.32542 -0.40534,0.64503 -0.66843,0.98216 -0.26308,0.33714 -0.56709,0.69182 -0.77753,0.91006 -0.21044,0.21824 -0.32738,0.30009 -0.39078,0.3525 -0.0634,0.0524 -0.077,0.0841 -0.0828,0.48377 -0.006,0.39963 -0.006,1.17136 -0.007,1.55789 -0.002,0.38654 -0.004,0.38793 -0.0332,0.3896 -0.0288,0.002 -0.0825,0.003 -0.11152,0.003 -0.029,3.5e-4 -0.0329,-2.9e-4 -0.0352,-6.5e-4 -0.002,-3.6e-4 -0.002,-5.5e-4 -0.0133,-0.37524 z"
             id="path3592"
             inkscape:path-effect="#path-effect3594"
             inkscape:original-d="m 165.67033,180.22 c -0.0218,-0.74939 -0.0438,-1.49904 -0.0661,-2.24896 -0.0178,-0.067 -0.0358,-0.13422 -0.0541,-0.20172 -0.38684,-0.28104 -0.77391,-0.56233 -1.16128,-0.84391 -0.54542,-0.82996 -1.09105,-1.6601 -1.63702,-2.49062 -0.0726,-0.56426 -0.14537,-1.12871 -0.21845,-1.69348 0.0353,-0.4168 0.0704,-0.83384 0.10523,-1.25116 0.22632,-0.38561 0.45236,-0.77147 0.67815,-1.15761 0.28224,-0.24139 0.5642,-0.48304 0.84591,-0.72497 0.20161,-0.0621 0.40295,-0.12446 0.60403,-0.18708 0.19515,-0.0192 0.39003,-0.0387 0.58465,-0.0585 0.26141,0.004 0.52255,0.008 0.78343,0.0117 0.23897,0.0392 0.47767,0.0782 0.71612,0.11693 0.26047,0.23803 0.52066,0.47578 0.78059,0.71327 0.125,0.20685 0.24972,0.41342 0.37418,0.61973 0.13279,0.35496 0.26531,0.70964 0.39756,1.06407 0.0431,0.49528 0.086,0.99027 0.12863,1.48502 -0.0933,0.39393 -0.18683,0.78759 -0.28064,1.18099 -0.14395,0.33158 -0.28816,0.66287 -0.43264,0.99391 -0.22191,0.31988 -0.44407,0.63949 -0.6665,0.95883 -0.30376,0.35496 -0.60777,0.70964 -0.91206,1.06407 -0.11667,0.0821 -0.2336,0.16396 -0.35079,0.24555 -0.008,0.0237 -0.0231,0.0548 -0.0351,0.0819 2.7e-4,0.77202 2.7e-4,1.54375 0,2.31523 -0.003,0.002 -0.006,0.003 -0.0101,0.005 -0.0535,0.002 -0.10723,0.003 -0.16123,0.004 -0.004,-5.3e-4 -0.008,-0.001 -0.0124,-0.002 z"
             sodipodi:nodetypes="cccccccccccccccccccccccccccc" />
          <ellipse
             style="fill:#ffffff;fill-opacity:1;stroke:none;stroke-width:0.0132292;stroke-linecap:round;stroke-linejoin:round;stroke-miterlimit:4;stroke-dasharray:none;stroke-opacity:1"
             id="path3596"
             cx="165.59686"
             cy="171.80586"
             rx="1.5434815"
             ry="1.2745415" />
          <ellipse
             style="fill:#ff0000;fill-opacity:1;stroke:none;stroke-width:0.0132292;stroke-linecap:round;stroke-linejoin:round;stroke-miterlimit:4;stroke-dasharray:none;stroke-opacity:1"
             id="path3598"
             cx="165.76056"
             cy="180.52887"
             rx="0.3975634"
             ry="0.36248431" />
        </g>
        <path
           sodipodi:nodetypes="sccccccccs"
           inkscape:original-d="m 167.77176,172.09819 c -0.0231,0.34326 -0.0465,0.68625 -0.0702,1.02899 -0.28037,0.71745 -0.561,1.43461 -0.8419,2.15151 -0.33494,0.6395 -0.67013,1.27871 -1.0056,1.91766 0.0159,0.0393 0.0315,0.0782 0.0468,0.11693 0.52452,-0.69809 1.04877,-1.39642 1.57278,-2.09506 0.17719,-0.54086 0.35412,-1.08194 0.53079,-1.62332 -0.0281,-0.50112 -0.0564,-1.00248 -0.085,-1.50412 -0.049,0.003 -0.0982,0.005 -0.1477,0.007 z"
           inkscape:path-effect="#path-effect3607"
           id="path3605"
           d="m 167.76005,172.26981 c -0.0117,0.17162 -0.0351,0.51461 -0.18714,1.04465 -0.15204,0.53004 -0.43267,1.2472 -0.74059,1.92538 -0.30792,0.67818 -0.64311,1.31739 -0.80281,1.65663 -0.1597,0.33924 -0.14412,0.37815 0.12573,0.0483 0.26985,-0.32982 0.79409,-1.02815 1.14469,-1.64784 0.35059,-0.61969 0.52751,-1.16077 0.60185,-1.68197 0.0743,-0.52119 0.046,-1.02255 0.007,-1.27221 -0.0387,-0.24967 -0.0879,-0.24734 -0.11262,-0.24616 -0.0247,0.001 -0.0247,0.002 -0.0364,0.1732 z"
           style="fill:#800000;fill-opacity:0.431452;stroke:none;stroke-width:0.00264583;stroke-linecap:butt;stroke-linejoin:miter;stroke-miterlimit:4;stroke-dasharray:none;stroke-opacity:1" />
      </g>
      <path
         sodipodi:nodetypes="cccccccccccccccccccccccccccc"
         inkscape:original-d="m 106.63809,205.85133 c -0.0218,-0.74939 -0.0438,-1.49904 -0.0661,-2.24896 -0.0178,-0.067 -0.0358,-0.13422 -0.0541,-0.20172 -0.38684,-0.28104 -0.77391,-0.56233 -1.16128,-0.84391 -0.54542,-0.82996 -1.09105,-1.6601 -1.63702,-2.49062 -0.0726,-0.56426 -0.14537,-1.12871 -0.21845,-1.69348 0.0353,-0.4168 0.0704,-0.83384 0.10523,-1.25116 0.22632,-0.38561 0.45236,-0.77147 0.67815,-1.15761 0.28224,-0.24139 0.5642,-0.48304 0.84591,-0.72497 0.20161,-0.0621 0.40295,-0.12446 0.60403,-0.18708 0.19515,-0.0192 0.39003,-0.0387 0.58465,-0.0585 0.26141,0.004 0.52255,0.008 0.78343,0.0117 0.23897,0.0392 0.47767,0.0782 0.71612,0.11693 0.26047,0.23803 0.52066,0.47578 0.78059,0.71327 0.125,0.20685 0.24972,0.41342 0.37418,0.61973 0.13279,0.35496 0.26531,0.70964 0.39756,1.06407 0.0431,0.49528 0.086,0.99027 0.12863,1.48502 -0.0933,0.39393 -0.18683,0.78759 -0.28064,1.18099 -0.14395,0.33158 -0.28816,0.66287 -0.43264,0.99391 -0.22191,0.31988 -0.44407,0.63949 -0.6665,0.95883 -0.30376,0.35496 -0.60777,0.70964 -0.91206,1.06407 -0.11667,0.0821 -0.2336,0.16396 -0.35079,0.24555 -0.008,0.0237 -0.0231,0.0548 -0.0351,0.0819 2.7e-4,0.77202 2.7e-4,1.54375 0,2.31523 -0.003,0.002 -0.006,0.003 -0.0101,0.005 -0.0535,0.002 -0.10723,0.003 -0.16123,0.004 -0.004,-5.3e-4 -0.008,-0.001 -0.0124,-0.002 z"
         inkscape:path-effect="#path-effect3650"
         id="path3592-5"
         d="m 106.62708,205.47664 c -0.011,-0.37469 -0.0331,-1.12434 -0.0531,-1.53279 -0.02,-0.40844 -0.038,-0.47565 -0.24048,-0.64997 -0.20246,-0.17432 -0.58953,-0.45561 -1.05598,-1.01133 -0.46644,-0.55573 -1.01207,-1.38587 -1.32142,-2.08327 -0.30934,-0.6974 -0.38215,-1.26184 -0.40105,-1.75265 -0.0189,-0.49081 0.0162,-0.90785 0.14672,-1.3094 0.13056,-0.40154 0.3566,-0.7874 0.61065,-1.10122 0.25404,-0.31382 0.536,-0.55547 0.77774,-0.70749 0.24173,-0.15203 0.44307,-0.21439 0.64122,-0.25531 0.19815,-0.0409 0.39303,-0.0604 0.62106,-0.0682 0.22803,-0.008 0.48917,-0.004 0.73911,0.0176 0.24994,0.0215 0.48864,0.0604 0.73809,0.19891 0.24945,0.13848 0.50964,0.37623 0.70206,0.59843 0.19242,0.2222 0.31714,0.42877 0.44573,0.70941 0.12859,0.28064 0.26111,0.63532 0.34876,1.06015 0.0876,0.42484 0.13053,0.91983 0.10516,1.36412 -0.0254,0.4443 -0.11892,0.83796 -0.23781,1.20041 -0.11888,0.36246 -0.26309,0.69375 -0.44628,1.01918 -0.18318,0.32542 -0.40534,0.64503 -0.66843,0.98216 -0.26308,0.33714 -0.56709,0.69182 -0.77753,0.91006 -0.21044,0.21824 -0.32738,0.30009 -0.39078,0.3525 -0.0634,0.0524 -0.077,0.0841 -0.0828,0.48377 -0.006,0.39963 -0.006,1.17136 -0.007,1.55789 -0.002,0.38654 -0.004,0.38793 -0.0332,0.3896 -0.0288,0.002 -0.0825,0.003 -0.11152,0.003 -0.029,3.5e-4 -0.0329,-2.9e-4 -0.0352,-6.5e-4 -0.002,-3.6e-4 -0.002,-5.5e-4 -0.0133,-0.37524 z"
         style="fill:#ff0000;stroke:none;stroke-width:0.0132292;stroke-linecap:butt;stroke-linejoin:miter;stroke-miterlimit:4;stroke-dasharray:none;stroke-opacity:1" />
      <ellipse
         ry="1.2745415"
         rx="1.5434815"
         cy="197.43719"
         cx="106.56463"
         id="path3596-3"
         style="fill:#ffffff;fill-opacity:1;stroke:none;stroke-width:0.0132292;stroke-linecap:round;stroke-linejoin:round;stroke-miterlimit:4;stroke-dasharray:none;stroke-opacity:1" />
      <ellipse
         ry="0.36248431"
         rx="0.3975634"
         cy="206.1602"
         cx="106.72832"
         id="path3598-7"
         style="fill:#ff0000;fill-opacity:1;stroke:none;stroke-width:0.0132292;stroke-linecap:round;stroke-linejoin:round;stroke-miterlimit:4;stroke-dasharray:none;stroke-opacity:1" />
      <path
         sodipodi:nodetypes="sccccccccs"
         inkscape:original-d="m 108.73952,197.72952 c -0.0231,0.34326 -0.0465,0.68625 -0.0702,1.02899 -0.28037,0.71745 -0.561,1.43461 -0.8419,2.15151 -0.33494,0.6395 -0.67013,1.27871 -1.0056,1.91766 0.0159,0.0393 0.0315,0.0782 0.0468,0.11693 0.52452,-0.69809 1.04877,-1.39642 1.57278,-2.09506 0.17719,-0.54086 0.35412,-1.08194 0.53079,-1.62332 -0.0281,-0.50112 -0.0564,-1.00248 -0.085,-1.50412 -0.049,0.003 -0.0982,0.005 -0.1477,0.007 z"
         inkscape:path-effect="#path-effect3652"
         id="path3605-9"
         d="m 108.72781,197.90114 c -0.0117,0.17162 -0.0351,0.51461 -0.18714,1.04465 -0.15204,0.53004 -0.43267,1.2472 -0.74059,1.92538 -0.30792,0.67818 -0.64311,1.31739 -0.80281,1.65663 -0.1597,0.33924 -0.14412,0.37815 0.12573,0.0483 0.26985,-0.32982 0.79409,-1.02815 1.14469,-1.64784 0.35059,-0.61969 0.52751,-1.16077 0.60185,-1.68197 0.0743,-0.52119 0.046,-1.02255 0.007,-1.27221 -0.0387,-0.24967 -0.0879,-0.24734 -0.11262,-0.24616 -0.0247,0.001 -0.0247,0.002 -0.0364,0.1732 z"
         style="fill:#800000;fill-opacity:0.431452;stroke:none;stroke-width:0.00264583;stroke-linecap:butt;stroke-linejoin:miter;stroke-miterlimit:4;stroke-dasharray:none;stroke-opacity:1" />
      <path
         style="fill:#00ffff;fill-opacity:0.431452;stroke:none;stroke-width:0.00088388;stroke-linecap:round;stroke-linejoin:round;stroke-miterlimit:4;stroke-dasharray:none;stroke-opacity:1"
         d="m 403.06597,780.46425 c -0.91627,-0.2056 -1.4234,-1.24746 -0.9308,-1.91229 0.17427,-0.23519 0.633,-0.59584 0.84982,-0.66811 0.0719,-0.024 0.0696,-0.94299 -0.009,-3.431 -0.1181,-3.7609 -0.21111,-5.00942 -0.39991,-5.36808 -0.14919,-0.28344 -0.66441,-0.78124 -1.83576,-1.77374 -2.64904,-2.24455 -5.43554,-5.94701 -7.32312,-9.73036 -0.9968,-1.99793 -1.50171,-3.56064 -1.81517,-5.61798 -0.20733,-1.36081 -0.20872,-4.12489 -0.003,-5.25911 0.80417,-4.42605 4.39555,-8.60566 8.05232,-9.37119 1.13286,-0.23716 3.64232,-0.32787 5.10561,-0.18456 1.77111,0.17346 2.81184,0.60988 4.13353,1.73338 1.62514,1.38145 2.79725,3.21334 3.64773,5.70105 1.03355,3.02323 1.30942,6.71361 0.71884,9.61625 -0.50604,2.48716 -1.6079,5.12519 -3.10867,7.4427 -1.56405,2.41523 -4.51389,5.88527 -5.98284,7.0379 l -0.34716,0.27241 -0.0671,0.96314 c -0.0369,0.52972 -0.0696,2.53428 -0.0727,4.45457 l -0.006,3.49143 0.37479,0.18064 c 1.46914,0.70807 0.62715,2.78415 -0.98266,2.42295 z m 1.55493,-14.46991 c 2.26878,-2.65551 4.77787,-6.54924 5.79535,-8.99352 0.96726,-2.32363 1.41735,-5.16471 1.21656,-7.67924 -0.1132,-1.41766 -0.249,-1.95509 -0.49404,-1.95509 -0.15596,0 -0.18288,0.10146 -0.27491,1.03627 -0.33543,3.4073 -1.70385,7.21788 -5.07924,14.14395 -0.88082,1.80739 -1.65465,3.43684 -1.71963,3.62101 -0.17805,0.50463 0.0328,0.43886 0.55591,-0.17338 z m -0.16251,-15.13845 c 0.40719,-0.0976 1.0464,-0.33671 1.42047,-0.53132 3.71882,-1.93475 3.64911,-6.43766 -0.12789,-8.26136 -1.11552,-0.53862 -1.90433,-0.69285 -3.29869,-0.64494 -0.96262,0.0331 -1.22999,0.0767 -1.89512,0.30943 -1.00915,0.35305 -1.64371,0.73948 -2.32504,1.41584 -2.65176,2.63246 -1.19098,6.6656 2.79189,7.70827 0.92151,0.24124 2.43757,0.24304 3.43438,0.004 z"
         id="path3662"
         transform="scale(0.26458333)" />
      <path
         style="fill:#00ff1b;fill-opacity:0.592742;stroke:none;stroke-width:0.00088388;stroke-linecap:round;stroke-linejoin:round;stroke-miterlimit:4;stroke-dasharray:none;stroke-opacity:1"
         d="m 402.74838,780.26626 c -0.96251,-0.54515 -0.98555,-1.52989 -0.0503,-2.14883 l 0.357,-0.23625 -2.6e-4,-1.42457 c -3.6e-4,-1.7374 -0.14871,-5.38308 -0.26231,-6.44602 -0.0553,-0.51698 -0.14489,-0.87857 -0.26662,-1.07554 -0.10087,-0.16319 -0.74017,-0.78262 -1.42069,-1.3765 -3.01467,-2.63084 -5.40341,-5.72076 -7.44445,-9.62965 -1.44202,-2.76167 -2.04112,-4.97633 -2.15194,-7.95495 -0.0891,-2.39369 0.16396,-4.02797 0.88948,-5.74524 1.47052,-3.48067 4.40297,-6.21828 7.36145,-6.87231 1.03054,-0.22782 5.16823,-0.2232 6.14912,0.007 2.26671,0.53165 4.39752,2.49649 5.76792,5.31864 1.32383,2.72625 1.87427,5.43928 1.7827,8.78667 -0.0382,1.39663 -0.0917,1.94075 -0.27656,2.81315 -0.59191,2.79326 -1.91548,5.72134 -3.74619,8.28756 -1.51926,2.12963 -3.86269,4.85 -5.02801,5.83677 -0.5841,0.4946 -0.60403,0.52503 -0.6582,1.00475 -0.0307,0.27209 -0.0622,2.28458 -0.07,4.47219 l -0.0142,3.97747 0.42512,0.27328 c 0.47465,0.30512 0.64302,0.58996 0.64302,1.08783 0,0.63911 -0.64787,1.24806 -1.32445,1.2449 -0.1709,-8e-4 -0.46866,-0.0909 -0.66167,-0.20022 z m 1.83317,-14.167 c 0.71911,-0.79016 1.85999,-2.31732 2.96726,-3.97191 2.69524,-4.0275 3.70256,-6.45095 4.07803,-9.81111 0.24091,-2.15597 -0.0287,-4.99394 -0.47446,-4.99394 -0.19597,0 -0.20951,0.048 -0.36165,1.28227 -0.43984,3.56838 -1.64035,6.83828 -5.30548,14.45085 -1.29115,2.68177 -1.54625,3.23709 -1.54625,3.36609 0,0.20059 0.3067,0.0468 0.64255,-0.32225 z m 0.47694,-15.38974 c 2.27732,-0.82984 3.5651,-2.45246 3.5651,-4.49208 0,-1.8314 -1.04598,-3.33312 -2.94814,-4.23266 -1.04876,-0.49597 -1.69756,-0.61016 -3.20829,-0.56469 -1.15783,0.0349 -1.39046,0.0684 -1.9753,0.28437 -0.89775,0.33161 -1.49453,0.68152 -2.09259,1.22697 -1.28325,1.17035 -1.80195,2.78444 -1.39584,4.34358 0.36434,1.39879 1.55029,2.67241 3.05949,3.28565 1.05239,0.42763 1.35493,0.4744 2.85962,0.44216 1.30732,-0.028 1.46876,-0.0502 2.13595,-0.2933 z"
         id="path3664"
         transform="scale(0.26458333)" />
      <path
         style="fill:#8fff9c;fill-opacity:1;stroke:none;stroke-width:0.00088388;stroke-linecap:round;stroke-linejoin:round;stroke-miterlimit:4;stroke-dasharray:none;stroke-opacity:1"
         d="m 404.08551,766.2595 c 0.0289,-0.0851 0.74027,-1.56668 1.58078,-3.29246 3.63649,-7.46658 4.96432,-11.17971 5.30237,-14.8275 0.0611,-0.65915 0.13083,-0.80824 0.28881,-0.61739 0.3662,0.44239 0.44287,4.13261 0.12257,5.89894 -0.23475,1.29454 -0.53922,2.33838 -1.04205,3.57261 -0.75657,1.85707 -2.44716,4.63454 -4.36014,7.1633 -1.4539,1.92191 -2.05973,2.59502 -1.89234,2.1025 z"
         id="path3666"
         transform="scale(0.26458333)" />
      <path
         style="fill:#8fff9c;fill-opacity:1;stroke:none;stroke-width:0.000220971;stroke-linecap:round;stroke-linejoin:round;stroke-miterlimit:4;stroke-dasharray:none;stroke-opacity:1"
         d="m 395.36334,761.0521 c -0.83094,-1.26698 -1.57019,-2.56489 -2.17749,-3.82304 -0.76928,-1.5937 -1.27215,-3.14838 -1.5499,-4.79166 -0.2523,-1.49271 -0.3237,-3.4609 -0.1779,-4.90394 0.0428,-0.42374 0.10456,-0.86687 0.11601,-0.83254 0.005,0.0146 -0.007,0.14328 -0.0254,0.28592 -0.0881,0.6664 -0.12482,1.76843 -0.0988,2.96216 0.0231,1.05742 0.0762,1.66312 0.21692,2.47347 0.32524,1.87297 0.84126,3.38303 1.81414,5.30879 0.55857,1.10566 1.21701,2.24745 1.88322,3.26566 0.14541,0.22225 0.25945,0.40903 0.25341,0.41507 -0.006,0.006 -0.12044,-0.15591 -0.25422,-0.35989 z"
         id="path3668"
         transform="scale(0.26458333)" />
      <path
         style="fill:#8fff9c;fill-opacity:1;stroke:none;stroke-width:0.000220971;stroke-linecap:round;stroke-linejoin:round;stroke-miterlimit:4;stroke-dasharray:none;stroke-opacity:1"
         d="m 391.58066,746.64457 c -0.003,-0.0829 0.15208,-0.79205 0.24219,-1.10945 0.36313,-1.27911 0.99183,-2.58833 1.79865,-3.74554 0.24384,-0.34975 0.18985,-0.22389 -0.0719,0.1675 -0.33185,0.49628 -0.56029,0.89238 -0.85203,1.47737 -0.48621,0.97491 -0.82007,1.91097 -1.04031,2.91681 -0.0412,0.18838 -0.0757,0.32037 -0.0766,0.29331 z"
         id="path3670"
         transform="scale(0.26458333)" />
      <path
         style="fill:#8fff9c;fill-opacity:1;stroke:none;stroke-width:0.000220971;stroke-linecap:round;stroke-linejoin:round;stroke-miterlimit:4;stroke-dasharray:none;stroke-opacity:1"
         d="m 394.8715,740.23873 c 0,-0.0256 0.66697,-0.68555 0.92808,-0.91826 0.49808,-0.44391 1.17243,-0.93629 1.69043,-1.23428 1.03042,-0.59277 2.13596,-0.88523 3.85594,-1.02002 0.48118,-0.0377 2.41824,-0.0378 2.92787,-7e-5 0.86644,0.0641 1.40763,0.13602 1.86518,0.24797 0.80743,0.19755 1.49023,0.53217 2.24487,1.10016 0.36526,0.27491 0.88624,0.72735 0.86361,0.74998 -0.006,0.006 -0.0883,-0.06 -0.18339,-0.14622 -0.29318,-0.26602 -0.68679,-0.57136 -1.04482,-0.81052 -1.00677,-0.6725 -1.95609,-0.96429 -3.56868,-1.09687 -0.45964,-0.0378 -2.36733,-0.0377 -2.92786,1.9e-4 -1.32018,0.0892 -1.89643,0.1806 -2.59641,0.41198 -0.76338,0.25234 -1.48665,0.62139 -2.19866,1.12186 -0.54837,0.38545 -0.92853,0.70539 -1.47498,1.24135 -0.20965,0.20563 -0.38118,0.36436 -0.38118,0.35275 z"
         id="path3680"
         transform="scale(0.26458333)" />
      <path
         style="fill:#008000;fill-opacity:1;stroke:none;stroke-width:0.000131624;stroke-linecap:round;stroke-linejoin:round;stroke-miterlimit:4;stroke-dasharray:none;stroke-opacity:1"
         d="m 106.743,203.04889 c 0.004,-0.0183 0.16975,-0.37487 0.36642,-0.79238 0.64233,-1.36353 0.84751,-1.96342 1.09865,-2.63352 0.29231,-0.77994 0.47875,-1.30979 0.55573,-1.98096 0.0139,-0.12086 0.0293,-0.23047 0.0341,-0.24361 0.0256,-0.0683 0.0768,0.0349 0.10444,0.2113 0.0143,0.0905 0.0228,0.26293 0.0276,0.54516 0.0101,0.58769 0.0318,0.89346 -0.0629,1.31118 -0.0906,0.39925 -0.2452,0.76118 -0.44596,1.17239 -0.29146,0.59702 -0.76273,1.2716 -1.30954,1.99095 -0.21427,0.2819 -0.38316,0.47407 -0.36871,0.41949 z"
         id="path3690"
         sodipodi:nodetypes="ssssssssssss" />
    </g>
  </g>
</svg>
